<?xml version="1.0" encoding="UTF-8"?>
<svg id="_圖層_2" data-name="圖層_2" xmlns="http://www.w3.org/2000/svg" viewBox="0 0 140.96 134.48">
  <defs>
    <style>
      .cls-1 {
        fill: #34220d;
      }

      .cls-2 {
        fill: #f2ea72;
      }

      .cls-3 {
        fill: #f5e97c;
      }

      .cls-4 {
        fill: #82cdeb;
      }

      .cls-5 {
        fill: #1c66a6;
      }

      .cls-6 {
        fill: none;
      }

      .cls-7, .cls-8 {
        fill: #595850;
      }

      .cls-9 {
        fill: #49acd8;
      }

      .cls-10 {
        fill: #2590c5;
      }

      .cls-8 {
        stroke: #595850;
      }

      .cls-8, .cls-11, .cls-12 {
        stroke-miterlimit: 10;
        stroke-width: .71px;
      }

      .cls-13 {
        fill: #030303;
      }

      .cls-11 {
        stroke: #6c6b86;
      }

      .cls-11, .cls-14 {
        fill: #6c6b86;
      }

      .cls-15 {
        fill: #a7844a;
      }

      .cls-16 {
        fill: #fefefe;
      }

      .cls-12 {
        fill: #cfedff;
        stroke: #fff;
      }
    </style>
  </defs>
  <g id="_魚魟" data-name="魚魟">
    <rect class="cls-16" x="82.43" y="54.11" width="36.99" height="23.95"/>
    <g>
      <path class="cls-6" d="M110.42,8.3c-.61-.42-1.23-.83-1.85-1.22.62.4,1.24.8,1.85,1.22Z"/>
      <path class="cls-6" d="M31.33,7.3c-.63.4-1.26.82-1.88,1.24.62-.42,1.25-.84,1.88-1.24Z"/>
      <path class="cls-6" d="M26.85,10.42c-.4.3-.8.6-1.19.91.39-.31.79-.61,1.19-.91Z"/>
      <path class="cls-6" d="M29.19,8.72c-.55.38-1.09.76-1.63,1.15.54-.39,1.08-.78,1.63-1.15Z"/>
      <path class="cls-6" d="M112.26,9.59c-.54-.4-1.09-.78-1.64-1.16.55.38,1.1.77,1.64,1.16Z"/>
      <path class="cls-6" d="M114.11,11c-.4-.32-.81-.62-1.21-.93.41.31.81.61,1.21.93Z"/>
      <path class="cls-11" d="M25.66,11.33c.39-.31.79-.61,1.19-.91.24-.18.48-.36.72-.54.54-.39,1.08-.78,1.63-1.15.08-.06.17-.12.25-.18.62-.42,1.25-.84,1.88-1.24h0c-6.59-1.04-7.41-2.58-7.41-2.58,0,0-.03-.07-.02-.18-.15-.02-.24,0-.28.02-2.69,2.38-2.23,6.74-.86,9.2.31-.28.63-.56.96-.84.63-.55,1.28-1.08,1.94-1.6Z"/>
      <path class="cls-11" d="M110.37,6.83s-.69.1-1.8.25c0,0,0,0,0,0,.62.4,1.24.8,1.85,1.22.06.04.13.09.19.13.55.38,1.1.77,1.64,1.16.22.16.43.32.64.48.41.31.81.61,1.21.93.64.5,1.27,1.02,1.89,1.55.5.43.99.87,1.48,1.31,3.14-2.65,1.68-7.85-.45-9.11-.47,1.65-6.66,2.08-6.66,2.08Z"/>
      <path class="cls-7" d="M34.88,6.81c5.28.56,57.54,1.77,65.47.76,2.26-.29,4.79-.73,7.13-1.2,4.24-.84,7.84-1.72,8.07-1.81.5-.19,1.02-.1,1.49.18,0,0,0-.02.01-.02.42-1.67-6.25-2.22-13.76-2.78-7.51-.56-23.35-1.95-32.8-1.95s-20.99.42-28.35,1.11c-7.37.69-13.06,1.39-15.84,1.95-2.08.42-2.37,1.15-2.38,1.49,1.05.11,4.75,1.28,8.71,1.95.75.13,1.51.24,2.26.32Z"/>
      <path class="cls-14" d="M23.92,4.73s.82,1.54,7.41,2.58c.43-.27.85-.55,1.28-.81-3.96-.67-7.66-1.84-8.71-1.95,0,.11.02.18.02.18Z"/>
      <path class="cls-7" d="M23.92,4.73s.82,1.54,7.41,2.58c.43-.27.85-.55,1.28-.81-3.96-.67-7.66-1.84-8.71-1.95,0,.11.02.18.02.18Z"/>
      <path class="cls-14" d="M115.54,4.56c-.23.08-3.83.97-8.07,1.81.37.23.73.47,1.1.7,1.11-.15,1.8-.25,1.8-.25,0,0,6.19-.43,6.66-2.08-.48-.28-.99-.37-1.49-.18Z"/>
      <path class="cls-7" d="M115.54,4.56c-.23.08-3.83.97-8.07,1.81.37.23.73.47,1.1.7,1.11-.15,1.8-.25,1.8-.25,0,0,6.19-.43,6.66-2.08-.48-.28-.99-.37-1.49-.18Z"/>
      <path class="cls-12" d="M117.48,13.86c-.52.44-1.16.81-1.95,1.08-1.19.41-5.36,1.4-10.14,1.87-4.78.48-18.22,2.45-36.14,2.31-20.4-.16-32.57-1.84-40.72-2.31-1.24-.07-4.71-1.67-4.92-1.87-.31-.3-.6-.71-.86-1.18C-.16,34.35.29,63.98.37,66.66c.72,22.8,12.9,44.6,31.5,55.59,1.99,1.17,4.05,2.23,6.17,3.2,2.98.4,6.77.87,10.44,1.22,7.78.74,12.42,1.67,22,1.67s16.35-.93,24.51-1.48c2.3-.16,4.15-.34,5.67-.53,6.65-2.75,12.86-6.44,18.31-11.12,9.1-7.82,15.84-21.72,19.27-33.36,7.06-23.97-2.22-51.18-20.76-68Z"/>
      <path class="cls-11" d="M28.54,16.82c8.15.48,20.32,2.15,40.72,2.31,17.91.14,31.36-1.84,36.14-2.31,4.78-.48,8.95-1.47,10.14-1.87.79-.27,1.43-.64,1.95-1.08-.49-.44-.98-.88-1.48-1.31-.62-.53-1.26-1.05-1.89-1.55-.4-.32-.81-.62-1.21-.93-.21-.16-.43-.33-.64-.48-.54-.4-1.09-.78-1.64-1.16-.06-.04-.13-.09-.19-.13-.61-.42-1.23-.83-1.85-1.22,0,0,0,0,0,0-2.4.32-6.77.89-10.57,1.27-5.56.56-15.98.42-26.13.56-10.15.14-18.76-.14-32.66-.83-3.28-.16-5.85-.44-7.88-.76,0,0,0,0,0,0-.63.4-1.26.82-1.88,1.24-.09.06-.17.12-.25.18-.55.38-1.09.76-1.63,1.15-.24.18-.48.36-.72.54-.4.3-.8.6-1.19.91-.65.52-1.3,1.05-1.94,1.6-.32.28-.64.56-.96.84.26.47.55.87.86,1.18.21.2,3.68,1.8,4.92,1.87Z"/>
      <path class="cls-14" d="M27.56,9.87c-.24.18-.48.36-.72.54.24-.18.48-.36.72-.54Z"/>
      <path class="cls-14" d="M27.56,9.87c-.24.18-.48.36-.72.54.24-.18.48-.36.72-.54Z"/>
      <polygon class="cls-14" points="31.33 7.3 31.33 7.3 31.33 7.3 31.33 7.3"/>
      <polygon class="cls-14" points="31.33 7.3 31.33 7.3 31.33 7.3 31.33 7.3"/>
      <path class="cls-14" d="M25.66,11.33c-.66.52-1.3,1.05-1.94,1.6.63-.55,1.28-1.08,1.94-1.6Z"/>
      <path class="cls-14" d="M25.66,11.33c-.66.52-1.3,1.05-1.94,1.6.63-.55,1.28-1.08,1.94-1.6Z"/>
      <path class="cls-14" d="M29.45,8.54c-.09.06-.17.12-.25.18.08-.06.17-.12.25-.18Z"/>
      <path class="cls-14" d="M29.45,8.54c-.09.06-.17.12-.25.18.08-.06.17-.12.25-.18Z"/>
      <path class="cls-14" d="M116,12.55c-.62-.53-1.25-1.05-1.89-1.55.64.5,1.27,1.02,1.89,1.55Z"/>
      <path class="cls-14" d="M116,12.55c-.62-.53-1.25-1.05-1.89-1.55.64.5,1.27,1.02,1.89,1.55Z"/>
      <path class="cls-14" d="M112.9,10.07c-.21-.16-.43-.33-.64-.48.22.16.43.32.64.48Z"/>
      <path class="cls-14" d="M112.9,10.07c-.21-.16-.43-.33-.64-.48.22.16.43.32.64.48Z"/>
      <path class="cls-14" d="M110.61,8.43c-.06-.04-.13-.09-.19-.13.06.04.13.09.19.13Z"/>
      <path class="cls-14" d="M110.61,8.43c-.06-.04-.13-.09-.19-.13.06.04.13.09.19.13Z"/>
      <polygon class="cls-14" points="108.57 7.07 108.57 7.07 108.57 7.07 108.57 7.07"/>
      <polygon class="cls-14" points="108.57 7.07 108.57 7.07 108.57 7.07 108.57 7.07"/>
      <path class="cls-7" d="M100.34,7.57c-7.92,1.01-60.18-.2-65.47-.76-.75-.08-1.51-.19-2.26-.32-.43.26-.86.54-1.28.81,2.03.32,4.61.59,7.88.76,13.9.69,22.52.97,32.66.83,10.15-.14,20.57,0,26.13-.56,3.8-.38,8.17-.95,10.57-1.27-.37-.23-.73-.48-1.1-.7-2.34.46-4.87.91-7.13,1.2Z"/>
      <path class="cls-7" d="M100.34,7.57c-7.92,1.01-60.18-.2-65.47-.76-.75-.08-1.51-.19-2.26-.32-.43.26-.86.54-1.28.81,2.03.32,4.61.59,7.88.76,13.9.69,22.52.97,32.66.83,10.15-.14,20.57,0,26.13-.56,3.8-.38,8.17-.95,10.57-1.27-.37-.23-.73-.48-1.1-.7-2.34.46-4.87.91-7.13,1.2Z"/>
      <path class="cls-14" d="M31.33,7.3h0c.43-.27.85-.55,1.28-.81-.43.26-.86.54-1.28.81Z"/>
      <path class="cls-7" d="M31.33,7.3h0c.43-.27.85-.55,1.28-.81-.43.26-.86.54-1.28.81Z"/>
      <path class="cls-14" d="M31.33,7.3h0c.43-.27.85-.55,1.28-.81-.43.26-.86.54-1.28.81Z"/>
      <path class="cls-14" d="M107.47,6.37c.37.23.73.47,1.1.7h0c-.37-.23-.73-.48-1.1-.7Z"/>
      <path class="cls-7" d="M40.34,123.03c-3.35-.45-5.69-.81-5.69-.81,0,0-2.04,2.59-2.04,4.82s2.04,4.08,2.04,4.08c0,0,.19.74,12.23,1.85,12.05,1.11,20.01,1.3,27.43,1.48,7.41.19,13.34-.37,24.46-1.3,11.12-.93,14.82-2.78,14.08-6.12-.74-3.34-.74-4.08-2.78-4.08-1.46,0-3.23.48-7.11.95-19.84,8.2-43.59,7.83-62.62-.88Z"/>
      <path class="cls-8" d="M72.25,126.17c-9.59,0-14.22-.93-22-1.67-3.67-.35-7.45-.82-10.44-1.22,13.82,9.3,34.46,10.02,62.62.88-1.53.19-3.37.37-5.67.53-8.15.56-14.92,1.48-24.51,1.48Z"/>
    </g>
    <g>
      <path class="cls-4" d="M43.22,88.9c-.7-.04-1.39-.12-2.07-.24-.62-.1-1.06-.48-1.45-.92-1.54-1.73-2.55-3.77-3.38-5.92-.35-.91-.58-1.86-.89-2.78.32-.43.52-.91.6-1.45.28.75.61,1.47,1.08,2.12.15.21.34.3.55.38.14.05.3.05.42-.08.13-.13.11-.28.04-.42-.13-.27-.28-.54-.42-.81-.38-.76-.76-1.51-.9-2.36.09-.19.27-.11.41-.12,1.02,0,2.03,0,3.05-.01.06.31.01.62.1.92.7,2.49,2.53,3.61,4.84,3.64,1.61.02,2.89-.71,3.78-2.06.36-.55.69-1.12.74-1.81h0c.11-.05.09-.15.08-.24.05-.17.09-.35.14-.52.56,0,1.12,0,1.68,0-.2,1.01-.5,1.99-.95,2.92-.08.16-.14.33-.21.49-.08.19-.11.4.08.52.18.11.4.06.57-.07.23-.17.36-.42.52-.65.03-.04.06-.07.14-.19-.03.6-.18,1.08-.31,1.56-.58,2.19-1.41,4.27-2.73,6.14-.38.54-.84,1.01-1.33,1.46-.29.27-.67.35-1.05.4-.27.04-.55.07-.83.1-.04-.77-.11-1.54-.25-2.3-.05-.29-.19-.43-.49-.39-.47.05-.77.35-1.02.71-.42.59-.58,1.26-.55,1.97Z"/>
      <path class="cls-10" d="M45.74,59.45c1.46.78,2.47,2,3.34,3.36.93,1.44,1.59,3.01,2.11,4.64.03.1.05.2.07.29-.51,0-1.02-.02-1.52.02-1.3.11-2.6.23-3.68,1.07-.04.03-.09.07-.13.07-.74-.12-1.54.25-2.24-.28-.2-.15-.45-.23-.68-.32-1.32-.53-2.71-.57-4.11-.54-1.1.02-2.19.2-3.29.31.66-2.4,1.68-4.62,3.31-6.52.91-1.06,1.96-1.95,3.32-2.41.36.95.96,1.74,1.62,2.49.37.42.78.8,1.26,1.09.34.2.62.12.63-.2.02-.35.09-.7.1-1.05.02-.67-.12-1.33-.09-2.01Z"/>
      <path class="cls-5" d="M34.75,74.87c-.71-.28-1.42-.55-2.13-.83-.18-.07-.36-.11-.55-.09-2.42.26-4.84.57-7.21,1.15-.17.04-.35.06-.52.09-.64.09-.83-.09-.67-.74.42-1.79,1.46-3.01,3.28-3.49.55-.15,1.11-.27,1.68-.31.27-.02.38-.07.23-.38-.51-1.11-.88-2.28-.92-3.51-.05-1.64.36-3.17,1.19-4.58.07-.12.17-.22.27-.32.15-.15.31-.15.46,0,.21.21.37.46.51.71,1.38,2.35,2.4,4.84,2.81,7.55.08.54.3.83.82.97.3.08.59.22.89.33-.09,1.08-.09,2.16-.08,3.24,0,.08,0,.15-.08.2Z"/>
      <path class="cls-1" d="M35.59,68.06c1.1-.11,2.19-.28,3.29-.31,1.4-.03,2.79.02,4.11.54.23.09.49.17.68.32.7.54,1.5.17,2.24.28.04,0,.09-.04.13-.07,1.09-.84,2.39-.96,3.68-1.07.5-.04,1.01-.02,1.52-.02,1.33.09,2.65.21,3.96.48q.61.13.61.76c0,.1,0,.2.02.3.04.27.02.47-.3.59-.41.15-.63.49-.72.92-.15.73-.3,1.46-.47,2.19-.16.72-.44,1.37-1.16,1.72-.17.06-.35.12-.52.18-.3.07-.6.14-.91.21-.71.02-1.43.05-2.14.07-1.2,0-2.3-.24-2.97-1.38-.39-.89-.73-1.79-.89-2.76-.09-.56-.41-.75-.99-.63-.23.05-.43.09-.47.39-.16,1.04-.46,2.04-.92,2.99-.41.66-.98,1.12-1.75,1.27-.43.08-.87.08-1.31.12-1.37,0-2.75,0-3.97-.77h0c0-.06-.03-.09-.08-.11-.03-.04-.07-.08-.1-.11-.38-.62-.5-1.32-.66-2.01-.14-.6-.17-1.22-.44-1.79-.12-.27-.35-.44-.61-.54-.22-.09-.27-.22-.25-.43.01-.11,0-.23,0-.34.02-.75-.14-.65.71-.86.22-.06.44-.1.66-.15ZM51.53,68.6c-.74-.11-1.48-.01-2.22.04-.54.04-1.08.14-1.58.35-.39.17-.73.41-.77.89-.02.1-.06.2-.06.29-.02.96.16,1.89.5,2.79.2.52.57.91,1.12,1.07,1.25.37,2.5.27,3.75-.03.7-.16,1.07-.65,1.27-1.28.31-1,.4-2.03.24-3.07-.06-.37-.25-.62-.6-.76-.52-.21-1.07-.3-1.63-.29ZM43.14,70.05c-.04-.69-.5-1-1.09-1.15-1.58-.41-3.18-.47-4.78-.14-.77.16-1,.49-1,1.29-.05.69-.02,1.37.1,2.05.22,1.28.72,1.83,1.86,2.04.84.15,1.69.18,2.54.1.8-.08,1.52-.36,1.86-1.17.39-.96.6-1.96.51-3Z"/>
      <path class="cls-5" d="M36.03,77.6c-.08.53-.27,1.02-.6,1.45-1.35,1.41-3.07,2.06-4.93,2.45-1.02.21-2.04.24-3.06.02-.48-.1-.48-.11-.2-.49,1.96-2.59,4.45-4.46,7.58-5.41.03-.01.06-.04.1-.06.2-.03.4-.06.6-.09.15.71.26,1.44.51,2.13Z"/>
      <path class="cls-5" d="M52.68,74.88c.17-.06.35-.12.52-.18,2.16.52,4.13,1.46,5.88,2.83.65.51,1.26,1.07,1.82,1.67.23.24.15.32-.12.41-1,.36-2.03.43-3.08.36-1.47-.1-2.88-.43-4.19-1.13-.08-.04-.15-.09-.23-.13-.32-.19-.64-.39-.87-.67-.28-.35.06-.69.1-1.03.09-.7.22-1.4.15-2.12Z"/>
      <path class="cls-5" d="M45.74,59.45c-.03.67.11,1.33.09,2.01-.01.36-.08.7-.1,1.05-.02.32-.29.4-.63.2-.48-.29-.89-.67-1.26-1.09-.66-.75-1.26-1.54-1.62-2.49-.18-.84.02-1.66.17-2.49.13-.76.31-1.51.52-2.26.03-.11.06-.22.12-.32.15-.31.35-.58.74-.57.39,0,.58.29.7.61.4,1.06.67,2.15.89,3.26.14.69.26,1.39.38,2.09Z"/>
      <path class="cls-5" d="M43.22,88.9c-.04-.72.13-1.38.55-1.97.25-.36.55-.66,1.02-.71.3-.03.44.1.49.39.14.76.21,1.53.25,2.3-.02,1.13.04,2.25-.16,3.37-.02.13-.01.31-.17.35-.16.04-.24-.12-.32-.22-.78-1.06-1.37-2.21-1.66-3.5Z"/>
      <path class="cls-9" d="M35.52,75.47c-.2.03-.4.06-.6.09-.06-.23,0-.49-.17-.69.07-.05.08-.12.08-.2-.01-1.08,0-2.16.08-3.24.12-.34.1-.7.17-1.05.27.57.3,1.19.44,1.79.16.69.28,1.39.66,2.01-.4-.06-.6.13-.63.51-.02.26-.02.53-.02.79Z"/>
      <path class="cls-9" d="M49.63,75.16c.71-.02,1.43-.05,2.14-.07.01.39-.12.75-.16,1.14-.56,0-1.12,0-1.68,0-.02-.08-.04-.15-.06-.23,0-.08-.01-.16-.02-.23-.01-.06,0-.13-.08-.15h0c.05-.18-.06-.31-.15-.45Z"/>
      <path class="cls-5" d="M49.63,75.16c.09.14.19.28.15.46-.34-.24-.69-.24-1.07-.09-.51.2-1.05.3-1.58.39-1.93.34-3.84.28-5.73-.22-.5-.13-.78.02-.94.5-.11.22-.01.43.07.62.53,1.24,1.43,2.11,2.72,2.55,1.34.46,2.66.41,3.98-.09.7-.29,1.31-.71,1.79-1.29.26-.32.47-.68.7-1.02-.04.68-.38,1.26-.74,1.81-.89,1.35-2.17,2.07-3.78,2.06-2.3-.02-4.14-1.15-4.84-3.64-.09-.31-.04-.62-.1-.92-.14-.39-.08-.76.07-1.13.44-.04.88-.04,1.31-.12.77-.14,1.34-.6,1.75-1.27,1.09-.16,2.18-.22,3.27,0,.67,1.14,1.77,1.38,2.97,1.38Z"/>
      <path class="cls-1" d="M49.71,76.99c-.23.34-.44.7-.7,1.02-.48.59-1.09,1.01-1.79,1.29.01-.12-.09-.17-.16-.23-.74-.68-1.99-.85-2.95-.38-.34.17-.71.31-.87.71-1.29-.45-2.18-1.31-2.72-2.55-.08-.19-.18-.4-.07-.62,1.25.61,2.56.96,3.94,1.01,1.94.08,3.78-.25,5.48-1.23.02.08.04.15.06.23-.05.17-.09.35-.14.52-.08.06-.1.15-.08.24h0Z"/>
      <path class="cls-16" d="M35.52,75.47c0-.26,0-.53.02-.79.03-.37.23-.57.63-.51.03.04.07.08.1.11,0,.06,0,.11.08.11,0,0,0,0,0,0,.08.69.15,1.39.45,2.03.14.85.53,1.6.9,2.36.13.27.29.54.42.81.07.14.08.29-.04.42-.12.13-.28.13-.42.08-.21-.08-.4-.17-.55-.38-.47-.66-.8-1.38-1.08-2.12-.25-.69-.36-1.41-.51-2.13Z"/>
      <path class="cls-9" d="M36.81,76.42c-.3-.64-.37-1.34-.45-2.03,1.23.77,2.6.77,3.97.77-.15.37-.21.74-.07,1.13-1.02,0-2.03,0-3.05.01-.14,0-.31-.07-.41.12Z"/>
      <path class="cls-5" d="M49.71,77c-.02-.1,0-.18.08-.24,0,.09.03.19-.08.24Z"/>
      <path class="cls-9" d="M43.14,70.05c.09,1.04-.11,2.05-.51,3-.34.81-1.06,1.1-1.86,1.17-.85.08-1.7.05-2.54-.1-1.14-.2-1.63-.76-1.86-2.04-.12-.68-.15-1.36-.1-2.05.54,0,1.08,0,1.62,0,.13,0,.28-.05.38.1-.04.09-.07.19-.1.28-.28.84-.32,1.7-.05,2.54.31.95,1.25,1.28,2.04.74.33-.22.54-.53.69-.89.37-.93.37-1.85,0-2.78.76,0,1.53,0,2.29,0Z"/>
      <path class="cls-9" d="M52.25,74.01c-1.25.31-2.5.4-3.75.03-.54-.16-.92-.54-1.12-1.07-.34-.9-.52-1.82-.5-2.79,0-.1.04-.2.06-.29.74,0,1.49,0,2.23,0-.43,1-.38,2.01-.05,3.01.1.31.3.59.56.8.77.63,1.64.31,1.97-.77.32-1.06.18-2.08-.38-3.04.17,0,.34,0,.5-.01.34,1.35.45,2.73.46,4.12Z"/>
      <path class="cls-16" d="M52.25,74.01c-.01-1.39-.12-2.76-.46-4.12-.09-.43-.17-.86-.26-1.29.56-.02,1.11.07,1.63.29.35.14.54.39.6.76.15,1.04.07,2.07-.24,3.07-.2.63-.57,1.13-1.27,1.28Z"/>
      <path class="cls-10" d="M38.27,70.14c-.1-.14-.25-.09-.38-.1-.54,0-1.08,0-1.62,0,0-.79.24-1.13,1-1.29,1.6-.33,3.2-.27,4.78.14.58.15,1.05.46,1.09,1.15-.76,0-1.53,0-2.29,0-.07-.09-.13-.18-.2-.27-.38-.52-.9-.66-1.5-.43-.4.15-.64.47-.88.8Z"/>
      <path class="cls-9" d="M46.66,73.78c-1.09-.22-2.18-.17-3.27,0,.46-.95.76-1.95.92-2.99.04-.3.25-.34.47-.39.58-.12.9.07.99.63.16.96.5,1.87.89,2.76Z"/>
      <path class="cls-10" d="M51.53,68.6c.09.43.17.86.26,1.29-.17,0-.34,0-.5.01-.84-.79-1.45-.8-2.1,0-.74,0-1.49,0-2.23,0,.04-.49.37-.72.77-.89.5-.22,1.04-.31,1.58-.35.74-.06,1.48-.16,2.22-.04Z"/>
      <path class="cls-9" d="M36.36,74.4c-.07,0-.09-.05-.08-.11.05.02.09.05.08.11Z"/>
      <path class="cls-16" d="M49.88,76c-1.7.98-3.55,1.3-5.48,1.23-1.39-.05-2.7-.4-3.94-1.01.17-.47.44-.63.94-.5,1.9.5,3.81.55,5.73.22.54-.09,1.07-.2,1.58-.39.38-.15.73-.15,1.07.09,0,0,0,0,0,0-.02.08,0,.13.08.15,0,.08.01.16.02.23Z"/>
      <path class="cls-5" d="M49.86,75.77c-.08-.02-.1-.07-.08-.15.08.02.07.09.08.15Z"/>
      <path class="cls-4" d="M43.24,79.39c.16-.4.53-.54.87-.71.95-.46,2.2-.3,2.95.38.07.06.18.11.16.23-1.31.5-2.64.55-3.98.09Z"/>
      <path class="cls-1" d="M38.27,70.14c.24-.32.48-.64.88-.8.6-.23,1.12-.09,1.5.43.07.09.13.18.2.27.37.92.38,1.85,0,2.78-.15.36-.37.67-.69.89-.79.54-1.73.21-2.04-.74-.28-.84-.24-1.7.05-2.54.03-.1.07-.19.1-.28ZM39.78,70.33c0-.33-.31-.65-.62-.65-.39,0-.81.48-.8.88.01.33.33.63.65.62.39-.02.78-.44.77-.85Z"/>
      <path class="cls-1" d="M49.18,69.9c.65-.79,1.26-.79,2.1,0,.55.96.7,1.98.38,3.04-.33,1.08-1.2,1.4-1.97.77-.26-.21-.46-.49-.56-.8-.32-1.01-.37-2.02.05-3.01ZM49.33,70.48c0,.43.25.7.63.7.4,0,.74-.39.73-.85,0-.4-.29-.72-.64-.72-.38,0-.73.41-.72.87Z"/>
      <path class="cls-5" d="M39.78,70.33c0,.41-.38.83-.77.85-.32.01-.63-.29-.65-.62-.02-.4.41-.87.8-.88.31,0,.61.32.62.65Z"/>
      <path class="cls-5" d="M49.33,70.48c0-.46.34-.88.72-.87.34,0,.63.33.64.72,0,.47-.32.86-.73.85-.38,0-.62-.27-.63-.7Z"/>
    </g>
    <g>
      <path class="cls-13" d="M100.23,88.94c-1.44,0-2.87-.1-4.3-.27-.24-.03-.36,0-.48.21-2.21,4.09-5.9,6.16-10.15,7.48-1.62.5-3.27.82-4.96.99-.7.07-1.22-.21-1.47-.8-.26-.6-.09-1.24.48-1.66,2.04-1.5,3.26-3.57,4.11-5.88.37-1,.61-2.05.38-3.14-.12-.54-.39-.91-.88-1.18-3.54-1.94-6.57-4.47-8.79-7.89-2.3-3.55-3.26-7.42-2.9-11.65.28-3.25.98-6.38,2.4-9.32,2.49-5.15,6.53-8.62,11.79-10.73,2.74-1.1,5.6-1.75,8.52-2.11,3.56-.45,7.13-.49,10.71-.2,4.96.41,9.71,1.54,14,4.19,5.35,3.32,8.49,8.16,9.75,14.28.38,1.86.57,3.75.55,5.65-.06,5.75-2.33,10.52-6.53,14.39-3.93,3.62-8.67,5.64-13.84,6.76-2.76.6-5.56.83-8.39.88ZM84.07,93.92c.42-.13.7-.21.98-.31,3.72-1.25,6.87-3.18,8.46-7,.22-.53.69-.82,1.29-.77.68.05,1.35.16,2.03.22,3.34.27,6.66.17,9.97-.42,4.29-.76,8.3-2.2,11.84-4.77,3.49-2.53,6-5.78,7.07-10.02.82-3.26.58-6.51-.17-9.74-1.22-5.27-4.12-9.33-8.82-12.06-3.48-2.02-7.29-2.98-11.25-3.4-3.38-.36-6.77-.36-10.16-.02-3.22.32-6.35.97-9.33,2.25-4.46,1.91-7.89,4.94-9.97,9.39-1.21,2.6-1.77,5.34-2,8.19-.29,3.6.5,6.9,2.48,9.91,1.98,3.02,4.67,5.23,7.81,6.94,1.13.62,1.84,1.54,2.17,2.78.37,1.4.18,2.77-.19,4.13-.45,1.64-1.23,3.14-2.22,4.69Z"/>
      <path class="cls-16" d="M126.9,60.99c-1.28-5.54-4.34-9.83-9.29-12.7-3.66-2.13-7.68-3.13-11.84-3.58-3.56-.38-7.13-.38-10.7-.03-3.39.33-6.69,1.03-9.82,2.37-4.7,2.01-8.31,5.2-10.5,9.89-1.28,2.73-1.86,5.63-2.11,8.62-.31,3.79.53,7.26,2.61,10.44,2.08,3.17,4.92,5.5,8.22,7.31,1.19.65,1.94,1.62,2.29,2.93.39,1.48.19,2.92-.2,4.35-.48,1.73-1.29,3.3-2.33,4.93.45-.14.74-.23,1.03-.32,3.91-1.32,7.23-3.34,8.91-7.37.23-.56.73-.86,1.36-.81.71.06,1.42.17,2.14.23,3.52.28,7.02.17,10.5-.44,4.51-.8,8.73-2.32,12.47-5.02,3.68-2.67,6.32-6.08,7.45-10.55.86-3.43.61-6.86-.17-10.25ZM116.18,59.09c-.6.98-1.44,1.73-2.28,2.47-1.43,1.25-2.98,2.35-4.59,3.37-.28.18-.36.4-.36.72,0,3.62-1.63,6.39-4.76,8.09-3.22,1.75-6.51,1.63-9.65-.37-.23-.14-.38-.17-.62-.07-2.22.92-4.45,1.81-6.81,2.33-.8.18-1.61.24-2.42.19-1.09-.06-1.52-.9-.95-1.83.71-1.16,1.7-2.05,2.72-2.92,1.39-1.19,2.88-2.22,4.38-3.26.22-.15.27-.31.24-.58-.31-2.58.39-4.87,2.06-6.85,1.53-1.82,3.55-2.76,5.85-3.17.4-.07.81,0,1.22,0,2.07-.09,3.88.63,5.46,1.92.4.33.71.27,1.1.1,1.85-.76,3.72-1.43,5.68-1.84.98-.2,1.96-.45,2.98-.2,1.09.27,1.35.94.76,1.9Z"/>
    </g>
    <rect class="cls-16" x="83.7" y="54.63" width="36.99" height="23.95"/>
    <g>
      <path class="cls-15" d="M117.53,68.62c-.53.52-.53,1.15-.34,1.8-.51-.03-.44.42-.54.69-1.25,3.42-3.29,6.24-6.38,8.17-1.13.71-2.37,1.21-3.69,1.65-1.74.58-3.43.71-5.16.61-4.36-.24-8.04-1.95-10.78-5.45-1.1-1.41-2.1-2.88-2.75-4.56-.08-.2-.17-.46-.44-.53-.15-1.15-.29-2.29-.44-3.44-.07-5.38,1.81-9.86,6.14-13.17,4.69-3.59,11.55-3.95,16.65-.93,5.12,3.02,7.41,7.64,7.69,13.43.03.58-.46,1.16.04,1.72ZM90.31,59.42c-.35.51-.72,1-.81,1.64l-.3.54c-1.3,3.17-1.26,6.37-.22,9.6.53,1.64,1.64,2.93,2.44,4.4,0,.49.46.34.69.51,2.56,2.9,5.87,4.14,9.64,4.42,2.26.17,4.32-.52,6.37-1.31,1.68-.64,2.93-1.85,4.18-3.07,1.25-.76,1.7-2.09,2.33-3.28.76-.56.68-1.49.97-2.25,1.05-2.72.97-5.43-.02-8.15-.02-.11-.04-.22-.06-.33-.05-.08-.1-.17-.15-.25-.01-.1-.02-.19-.04-.29-2.04-4.46-5.14-7.69-10.15-8.67-.35-.12-.7-.27-1.08-.2-1.53-.34-3.05-.3-4.55.16-.65.03-1.27.15-1.82.54-1.2.38-2.31.81-3.37,1.61-1.18.89-2.21,1.86-3.19,2.93-.48.37-.75.87-.86,1.46Z"/>
      <path class="cls-3" d="M112.29,76.16c-1.25,1.22-2.51,2.43-4.18,3.07-2.05.79-4.11,1.48-6.37,1.31-3.77-.28-7.08-1.53-9.64-4.42.03-.21.11-.32.35-.24.42.14.51-.14.56-.46,1.85,1.69,3.93,2.96,6.36,3.62.01.19-.08.45.2.52.3.07.32-.18.35-.38,2.25.05,4.52.37,6.7-.47.8.71.79-.23,1.09-.53,1.19-.74,2.39-1.47,3.58-2.21.31.18.64.22.99.21Z"/>
      <path class="cls-3" d="M91.41,75.6c-.8-1.48-1.91-2.77-2.44-4.4-1.04-3.23-1.07-6.43.22-9.6.37.06.75.12,1.12.18,0,.28-.13.5-.27.73-.98-.13-1-.11-.6,1.11-.02-.58.1-.81.46-.74-.03.24-.04.48-.11.71-.39,1.29-.59,2.63-.37,3.93.47,2.8,1.43,5.44,3.24,7.69-.48-.06-.77.47-1.26.4Z"/>
      <path class="cls-3" d="M105.18,52.93c5.01.98,8.11,4.21,10.15,8.67-.19-.02-.39-.07-.44-.26-.18-.61-.54-.53-.97-.29-.59-.57-.71-1.42-1.24-2.04-1.24-1.46-2.61-2.68-4.34-3.59-1.32-.69-2.62-1.25-4.07-1.49.03-.32.21-.49.53-.51.33-.02.38-.23.38-.49Z"/>
      <path class="cls-3" d="M115.58,62.48c.98,2.71,1.07,5.43.02,8.15-.3.76-.21,1.69-.97,2.25-.37-.19.06-.9-.59-.91-.04-.57.29-1.03.46-1.54.78-2.31.64-4.66.3-7.01.1.05.24.07.3.15.12.15.13.46.42.34.3-.13,0-.36.03-.54.06-.3-.37-.61.03-.89Z"/>
      <path class="cls-3" d="M91.17,57.96c.98-1.07,2.01-2.04,3.19-2.93,1.06-.8,2.17-1.23,3.37-1.61-.13.82.46.72.95.74-1.78.78-3.49,1.67-5.01,2.92-.73.6-1.21,1.4-1.94,1.97-.37-.38-.11-.61.25-.86-.29-.08-.55-.16-.8-.23Z"/>
      <path class="cls-3" d="M99.55,52.89c1.5-.46,3.02-.5,4.55-.16.11.46-.63.66-.37,1.17-1.58.04-3.15.04-4.72.22-.12-.55.82-.62.55-1.23Z"/>
      <path class="cls-2" d="M114.03,71.97c.65,0,.22.72.59.91-.64,1.19-1.09,2.52-2.33,3.28-.35,0-.68-.03-.99-.21.93-1.31,1.94-2.57,2.73-3.98Z"/>
      <path class="cls-2" d="M115.58,62.48c-.4.28.03.59-.03.89-.04.18.26.41-.03.54-.29.12-.3-.19-.42-.34-.07-.08-.2-.1-.3-.15-.34-.77-.74-1.52-.88-2.36.42-.24.79-.32.97.29.05.19.26.24.44.26.01.1.02.19.04.29.05.09.1.17.15.25.02.11.04.22.06.33Z"/>
      <path class="cls-3" d="M89.5,61.06c.08-.64.46-1.13.81-1.64.26-.03.56.02.77-.09.56-.3.2.24.32.32-.26.47-.52.93-.78,1.4-.37,0-.74,0-1.12,0Z"/>
      <path class="cls-2" d="M99.55,52.89c.28.61-.67.69-.55,1.23-.11.01-.21.03-.32.04-.49-.02-1.08.08-.95-.74.54-.39,1.17-.51,1.82-.54Z"/>
      <path class="cls-2" d="M91.4,59.65c-.12-.08.24-.62-.32-.32-.21.11-.51.07-.77.09.11-.59.39-1.08.86-1.46.26.07.51.15.8.23-.36.25-.62.48-.25.86-.11.2-.22.4-.33.59Z"/>
      <path class="cls-2" d="M103.72,53.89c-.25-.51.48-.7.37-1.17.39-.07.73.08,1.08.2,0,.26-.06.47-.38.49-.31.02-.5.18-.53.51-.18,0-.37-.02-.55-.03Z"/>
      <path class="cls-2" d="M91.41,75.6c.48.07.78-.46,1.26-.4,0,0-.02.01-.02.01.06.17.21.2.36.2h0c-.05.31-.14.6-.56.46-.24-.08-.32.04-.35.24-.23-.17-.69-.02-.69-.51Z"/>
      <path class="cls-2" d="M89.5,61.06c.37,0,.74,0,1.12,0,.05.3-.09.53-.3.73-.37-.06-.75-.12-1.12-.18.1-.18.2-.36.3-.54Z"/>
      <path class="cls-3" d="M115.52,62.14c-.05-.08-.1-.17-.15-.25.05.08.1.17.15.25Z"/>
      <path class="cls-15" d="M90.32,61.78c.21-.2.35-.43.3-.73.26-.47.52-.93.78-1.4.11-.2.22-.4.33-.59.73-.57,1.21-1.38,1.94-1.97,1.52-1.25,3.23-2.14,5.01-2.92.11-.01.21-.03.32-.04,1.57-.18,3.15-.19,4.72-.23.18,0,.37.02.55.03,1.45.24,2.75.8,4.07,1.49,1.74.91,3.11,2.13,4.34,3.59.53.62.65,1.47,1.24,2.04.14.85.54,1.59.88,2.36.34,2.36.48,4.7-.3,7.01-.17.51-.5.97-.46,1.54-.79,1.41-1.8,2.67-2.73,3.98-1.19.74-2.39,1.47-3.58,2.21-.44.03-.91-.01-1.09.53-2.19.84-4.46.52-6.71.48-.16-.15-.36-.13-.55-.14-2.43-.66-4.52-1.93-6.36-3.62,0,0,0,0,0,0,0-.06-.02-.12-.04-.18-.04-.2-.12-.1-.19-.02-.04-.01-.09-.02-.13,0,0,0,.02-.01.02-.01-1.81-2.25-2.77-4.89-3.24-7.69-.22-1.3-.02-2.64.37-3.93.07-.23.07-.47.11-.71.15-.08.17-.22.14-.37.14-.22.28-.45.27-.73ZM110.64,74.91c1.25-.32,1.46-1.59,2.19-2.39.23-.19.28-.46.32-.74.09-.24.18-.47.27-.71.04-.13.08-.25.13-.38.74-1.24.64-2.65.85-4,.2-.58-.06-1.11-.17-1.65.02-1.77-.85-3.27-1.54-4.8-.2-.45-.5-1.05-1.13-1.23,0-.05,0-.1-.03-.14-1.17-1.86-3.06-2.76-4.94-3.6-2.34-1.04-4.82-1.05-7.29-.47-3.29.78-5.7,2.81-7.55,5.56-.23.34-.63.6-.54,1.1-.47.27-.06.71-.2,1.04-.5.71-.7,1.5-.74,2.38-.13,2.9.14,5.69,1.83,8.18.11.33.44.38.68.55.07.57.41,1.02.82,1.37,1.84,1.6,3.78,2.93,6.3,3.41,3.07.59,5.86.09,8.47-1.46.78-.46,1.71-.89,2.1-1.86.06-.05.11-.11.17-.16Z"/>
      <path class="cls-2" d="M106.63,78.69c.18-.55.66-.51,1.09-.53-.3.3-.29,1.24-1.09.53Z"/>
      <path class="cls-2" d="M99.38,79.03c.19.01.39-.01.55.14-.04.2-.05.45-.35.38-.27-.07-.18-.32-.2-.52Z"/>
      <path class="cls-2" d="M90.05,62.51c.02.15.01.29-.14.37-.37-.07-.48.16-.46.74-.4-1.22-.37-1.24.6-1.11Z"/>
      <path class="cls-3" d="M92.98,75.24c.02.06.03.12.04.18-.16,0-.3-.03-.36-.2.05-.01.09,0,.13,0,.06,0,.13.01.19.02Z"/>
      <path class="cls-3" d="M91.2,61.47c-.1-.5.31-.76.54-1.1,1.85-2.76,4.26-4.78,7.55-5.56,2.47-.58,4.95-.58,7.29.47,1.88.84,3.77,1.74,4.94,3.6-.32.03-.68-.04-.83-.28-.55-.85-1.51-1.15-2.19-1.77-1.93-1.73-4.36-1.71-6.64-1.98-1.02-.12-2.28.09-3.28.72.22.78.9,1.35,1.01,2.18.03.23.2.38.45.34.23-.04.23-.25.24-.43.03-1.14,1.14-.74,1.68-1.16.37-.29.46.25.61.45.26.34.57.33.89.25.38-.1.24-.4.2-.67-.11-.6.47-.28.66-.49.37.51,1.13.2,1.56.68-.59.45-1.49.39-1.7,1.3.44.21.84.52,1.18.89.17.18.35.45.58.23.28-.27.02-.47-.22-.63-.16-.11-.45-.23-.2-.46.17-.16.36.01.56.1.73.33.71,1.01.88,1.62.08.28-.14.73.2.8.31.07.7-.14.47-.64,0,0,.15-.13.2-.11.65.25.61-.18.62-.6,0-.24.07-.58.31-.59.32,0,.24.41.36.57.39.54.97.94.71,1.76-.03.1.33.34.13.61-.18.24-.4.18-.65.1-.71-.23-.86.23-.84.78.02.35.08.74.23,1.05.19.37.42.62-.12.94-.16.1-.1.66-.05,1,.03.2.35.21.46.13.76-.53.89.19,1.25.69,0-.28,0-.43,0-.58-.01-.46.41-.76.67-.71.44.08.3.6.12.8-.54.65.25,1.84-.92,2.2-.05.01-.08.26-.03.34.43.69.16,1.76,1.16,2.15.06.02.12.25.08.32-.25.43.07.68.29.94.31.36.23.54-.19.73-.78.35-1.77.36-2.17,1.35-.07.18-.25.01-.38-.04-.22-.09-.46-.13-.68-.22-.74-.29-.85.49-1.11.79-.27.31.41.36.59.62.08.11.41.02.5.12.59.66.69.29.86-.31.08-.27.33-.96.8-.19.05.09.28.07.42.1h0c0,.16.05.3.21.38-.39.97-1.32,1.4-2.1,1.86-2.61,1.55-5.4,2.05-8.47,1.46-2.52-.49-4.46-1.81-6.3-3.41-.4-.35-.74-.79-.82-1.37.64.83,1.83.95,2.41,1.9.11.18.55.58,1.09.31-.75-.72-.39-1,.4-1.13.37-.06.38-.34.38-.69,0-.75-.49-1.53-.15-2.21.33-.66.05-.8-.45-.91-.41-.09-.77-.2-.73-.73.01-.03.03-.05.04-.08-.01.03-.03.05-.04.08-.39-.03-.8-.03-.9-.54.01-.03.03-.05.04-.08-.01.02-.03.05-.04.07-.38.04-.8-.12-1.14.16-.39.33-.71.38-1.04-.11-.25-.38-.66-.28-.98-.15-.38.15-.18.48-.17.78.04.83.21,1.6.7,2.28.13.18-.04.34-.09.51-1.7-2.48-1.97-5.28-1.83-8.18.04-.87.24-1.67.74-2.38.09.03.19.03.25.08.18.16.33.37.61.19.24-.16.23-.4.22-.64-.02-.34-.27-.35-.52-.35-.21,0-.34-.1-.36-.31ZM101.73,73.24c.23.12.45.26.69.33.17.05.44-.09.27-.26-.25-.25-.59-.84-.97-.07-.01.03-.03.05-.04.08.01-.03.03-.05.04-.08ZM105.18,64.69c.51.2.57.69.74,1.12-1.14.17-2.26.51-3.43.51-.48,0-.64-.2-.77-.67-.46-1.65-1.1-3.24-1.83-4.79-.19-.4-.19-.69.22-.89.9-.44,1.82-.88,2.85-.71.51.08.79.08.88-.5.1-.68-.24-.8-.82-.8-1.11,0-2.15.23-3.13.73-.43.22-.61.17-.74-.34-.16-.64-.48-1.23-.71-1.85-.14-.38-.45-.39-.74-.32-.32.07-.41.32-.32.63.22.73.43,1.46.65,2.19.06.19.25.37-.03.54-.4.25-.81.5-1.2.77-1.68,1.16-3.12,2.48-3.12,4.75-.31-.57-.96-.91-1.12-1.59-.08-.33-.43-.31-.67-.33-.21-.02-.4.09-.48.41-.18.71-.41,1.41-.72,2.07-.38.81.3,2.25,1.17,2.35.18.02.39.04.5-.13.09-.14.04-.28-.13-.37-.16-.08-.51.02-.41-.33.07-.26.36-.39.57-.38.67.03,1.41,0,1.68.85-.44.28-1.06.23-1.53.89.72-.2,1.36-.12,1.53-.89.49.15.82.49,1.09.91-.32.04-.43.21-.27.49.05.08.24.18.28.16.27-.2-.07-.42,0-.65.57-.36.57-.77,0-1.07-.31-.16-.37-.32-.34-.6.44.19.88.39,1.32.58,1.44.61,2.92.28,4.38.13.54-.05.67.11.82.53.64,1.83,1.28,3.65,1.97,5.46.18.48.02.56-.38.64-1.33.28-2.64.6-3.97.86-.42.08-.85.13-.83.63.03.59.56.46.92.42,1.01-.11,2.07-.13,3.01-.46,1.34-.47,2.25-.38,2.77,1.09.13.38.51.67.95.4.46-.28.27-.65.03-1.01-.86-1.32-.85-1.32.51-2.07.05-.03.12-.04.17-.07,1.73-1.2,3.56-2.31,3.25-4.91-.13-1.05-.4-1.91-1.35-2.47-.62-.37-1.29-.61-1.98-.78-.09-.39.48-.33.47-.67-1.11-.25-1.3-.8-.6-1.79.18-.25.16-.43,0-.64-.35-.44-.81-.55-1.28-.27-.5.29-.5.77-.15,1.16.31.34.33.69.32,1.08-.22.07-.57-.17-.64.25,0,.06.09.17.15.19.39.11.44-.17.48-.44ZM100.07,72.12c.15.29.14.92.43.81.56-.2,1.3-.15,1.65-.59.37-.46.03-1.09-.16-1.63-.25-.69-.71-1.29-.97-1.96-.24-.62-.62-.9-1.23-.75-1.1.27-2.18-.1-3.27,0-.43.04-.66.02-.43.53.14.3.53.74-.31.67-.23-.02-.18.28.04.46.29.22.57.02.86.04.1.32-.5.78.09.9.33.07.46-.29.45-.75,0-.28.12-.67.15-1.02.02-.2.01-.53.32-.35.26.15.7.14.75.56.03.28.11.61-.28.77-.32.13-.31.42-.07.57.72.46,1.46.92,2.23,1.28.27.12.59.09.65.46.01.08-.01.22-.07.25-.34.19-.33-.41-.84-.23ZM103.3,63.59c-.17-.53.66-1.61-.74-1.12-.1.04-.23-.06-.24-.21-.01-.19.12-.23.27-.3,1.04-.49,2.03-1.1,3.27-.81.18.04.24-.15.22-.31-.06-.49-.37-.58-.78-.46-.29.09-.45.47-.89.02-.39-.4-.05-.6.04-1.14-.9.73-1.99.15-2.73.95-.22.24-1.26.23-.14.74.29.13.12.55-.02.63-.63.38-.16.9-.23,1.34-.06.43.31.53.49.4.56-.41.95-.06,1.49.27ZM99.09,74.7c.11-.01.35.03.45-.07.19-.2.61-.17.59-.57-.02-.46-.3-.39-.63-.32-.25.05-.18-.18-.24-.34-.15-.44-.34-.78-.98-.42-.77.43-.17.89-.14,1.31.04.49.52.38.94.41ZM94.65,58.71c.33.15.53.11.53-.24,0-.24.12-.62-.27-.63-.33-.02-.67.22-.74.52-.11.42.34.27.49.35ZM107.71,76.55c.12-.07.52.34.5-.2-.01-.28-.26-.37-.52-.37-.27,0-.49.13-.49.41,0,.35.24.24.51.16ZM109.37,61.43c-.06-1.23-.16-1.31-1.15-.8.68-.07.83.42,1.15.8ZM95.67,60.28c-.51-.28-.66-.55-.85-.86q-.17.79.85.86ZM91.8,68.42s-.09,0-.13-.01c.02.02.04.05.06.05.02,0,.05-.02.07-.04Z"/>
      <path class="cls-2" d="M110.26,74.69c-.14-.03-.37-.01-.42-.1-.47-.78-.73-.08-.8.19-.17.6-.27.97-.86.31-.09-.11-.43-.02-.5-.12-.18-.26-.86-.3-.59-.62.26-.31.37-1.08,1.11-.79.22.09.46.13.68.22.13.05.31.22.38.04.4-.99,1.39-1,2.17-1.35.41-.18.5-.36.19-.73-.22-.26-.54-.51-.29-.94.04-.07-.01-.3-.08-.32-.99-.39-.72-1.46-1.16-2.15-.05-.08-.01-.33.03-.34,1.18-.37.39-1.56.92-2.2.17-.21.31-.73-.12-.8-.26-.05-.68.25-.67.71,0,.15,0,.3,0,.58-.36-.5-.5-1.22-1.25-.69-.11.08-.43.07-.46-.13-.05-.34-.11-.9.05-1,.53-.33.3-.57.12-.94-.16-.31-.22-.69-.23-1.05-.03-.55.12-1,.84-.78.25.08.48.13.65-.1.2-.26-.16-.51-.13-.61.26-.82-.31-1.23-.71-1.76-.12-.17-.04-.58-.36-.57-.24,0-.31.35-.31.59-.01.42.03.85-.62.6-.05-.02-.2.11-.2.11.23.5-.16.71-.47.64-.34-.07-.12-.53-.2-.8-.17-.61-.15-1.29-.88-1.62-.2-.09-.39-.26-.56-.1-.25.24.04.35.2.46.23.16.5.37.22.63-.23.21-.41-.05-.58-.23-.34-.37-.74-.68-1.18-.89.2-.91,1.1-.85,1.7-1.3-.43-.48-1.19-.17-1.56-.68-.19.21-.77-.11-.66.49.05.27.19.57-.2.67-.32.08-.63.09-.89-.25-.15-.19-.24-.73-.61-.45-.54.42-1.65.02-1.68,1.16,0,.18,0,.39-.24.43-.25.04-.42-.11-.45-.34-.11-.84-.78-1.4-1.01-2.18,1-.63,2.26-.84,3.28-.72,2.28.27,4.71.25,6.64,1.98.69.61,1.65.92,2.19,1.77.15.24.51.3.83.28.02.05.03.09.03.14-.14.65.32,1.06.62,1.52.24.36.34.71-.08,1.02-.22.16-.72.08-.59.5.11.35.49.44.88.49.52.06.74.36.42.88h0c-.85-.48-1.75-.13-2.72-.27.46.74,1.55.39,1.73,1.29,0,.03.12.06.16.04.88-.34,1.52.27,2.24.56.11.54.36,1.07.17,1.65-.33.02-.44.26-.53.53-.06.17-.22.2-.38.17-.29-.05-.21-.2-.1-.38.11-.17.02-.32-.16-.3-.31.05-.64-.32-.92,0-.42.46-.43,1.14-.84,1.63-.05.06.4.55.56.77.4,0,.08-.76.63-.44.36.21.49.53.03.84-.21.15-.26.42.07.43.54.01.53.51.79.76-.04.13-.08.25-.13.38-.51-.03-.62.29-.61.71-.16.03-.37-.05-.45.16-.01.03.08.15.14.16.24.04.28-.14.31-.32.11,0,.22,0,.34,0-.03.28-.08.55-.32.74-.37-.03-.77-.03-.85.42-.18.98-.98,1.33-1.71,1.76ZM113.41,65.87c-.59-.57-1.16-.68-1.78-.66.48.35.93.79,1.78.66Z"/>
      <path class="cls-2" d="M95.73,70.15c-.04.53.31.64.73.73.5.11.78.25.45.91-.34.69.16,1.46.15,2.21,0,.35-.01.63-.38.69-.79.13-1.15.41-.4,1.13-.53.26-.98-.13-1.09-.31-.58-.95-1.78-1.07-2.41-1.9-.24-.17-.57-.22-.68-.55.05-.17.22-.33.09-.51-.49-.68-.66-1.45-.7-2.28-.01-.3-.21-.62.17-.78.33-.13.74-.23.98.15.32.5.64.44,1.04.11.34-.28.76-.12,1.14-.16h0c.1.52.51.52.9.55h0Z"/>
      <path class="cls-3" d="M112.81,63.42c.32-.52.1-.82-.42-.88-.39-.05-.78-.13-.88-.49-.13-.42.37-.34.59-.5.42-.3.32-.65.08-1.02-.31-.47-.76-.87-.62-1.52.62.18.92.78,1.13,1.23.69,1.53,1.57,3.03,1.54,4.8-.72-.3-1.36-.91-2.24-.56-.04.02-.16-.02-.16-.04-.18-.9-1.27-.55-1.73-1.29.98.14,1.88-.21,2.72.27.02.26-.02.59.41.49.09-.02.24-.17.23-.23-.06-.42-.41-.19-.64-.26Z"/>
      <path class="cls-3" d="M113.54,70.7c-.26-.25-.25-.75-.79-.76-.33,0-.29-.28-.07-.43.46-.32.33-.63-.03-.84-.55-.32-.23.44-.63.44-.16-.22-.61-.71-.56-.77.41-.49.42-1.17.84-1.63.28-.31.61.05.92,0,.18-.03.27.13.16.3-.12.18-.19.33.1.38.15.03.32,0,.38-.17.09-.27.2-.51.53-.53-.21,1.35-.11,2.77-.85,4Z"/>
      <path class="cls-3" d="M110.26,74.69c.73-.42,1.53-.77,1.71-1.76.08-.45.48-.45.85-.42-.72.8-.93,2.07-2.19,2.39-.07-.17-.21-.21-.38-.22h0Z"/>
      <path class="cls-2" d="M91.2,61.47c.03.22.16.31.36.31.25,0,.5.02.52.35.02.24.02.49-.22.64-.28.18-.43-.03-.61-.19-.06-.05-.17-.06-.25-.08.14-.33-.27-.77.2-1.04Z"/>
      <path class="cls-3" d="M113.15,71.78c-.11,0-.22,0-.34,0h0c-.01-.42.1-.74.61-.71-.09.24-.18.47-.27.71Z"/>
      <path class="cls-2" d="M110.26,74.69c.17,0,.31.05.38.22-.06.05-.11.11-.17.16-.16-.07-.2-.21-.21-.38Z"/>
      <path class="cls-2" d="M92.98,75.24c-.06,0-.13-.01-.19-.02.07-.08.15-.18.19.02Z"/>
      <path class="cls-15" d="M106.43,65.83c.7.17,1.36.42,1.98.78.95.56,1.22,1.42,1.35,2.47.31,2.6-1.52,3.71-3.25,4.91-.05.03-.11.04-.17.07-1.37.75-1.37.75-.51,2.07.24.37.42.73-.03,1.01-.44.27-.81-.02-.95-.4-.51-1.48-1.43-1.57-2.77-1.09-.94.33-2,.35-3.01.46-.36.04-.89.16-.92-.42-.03-.5.41-.55.83-.63,1.33-.26,2.65-.59,3.97-.86.4-.08.56-.16.38-.64-.69-1.81-1.33-3.63-1.97-5.46-.15-.42-.28-.59-.82-.53-1.46.14-2.94.47-4.38-.13-.44-.19-.88-.39-1.32-.58,0,0-.01.01-.01.01-.55-.35-.79-.92-1.07-1.46-.03-.11-.05-.23-.08-.34,0-2.27,1.44-3.59,3.12-4.75.39-.27.8-.52,1.2-.77.28-.17.08-.36.03-.54-.22-.73-.43-1.46-.65-2.19-.09-.31,0-.56.32-.63.3-.06.6-.06.74.32.23.62.54,1.22.71,1.85.13.51.31.56.74.34.98-.5,2.02-.73,3.13-.73.57,0,.92.12.82.8-.09.58-.38.58-.88.5-1.03-.17-1.95.28-2.85.71-.41.2-.41.49-.22.89.72,1.55,1.37,3.14,1.83,4.79.13.46.29.67.77.67,1.17,0,2.29-.34,3.43-.51.17,0,.34.01.51.02ZM99.9,63.97l-1.09-2.56c-.08-.02-.16-.04-.24-.06.09-.23.18-.5-.11-.62-.28-.11-.54.08-.73.26-.83.8-1.8,1.44-2.43,2.48-.67,1.11-.59,1.74.45,2.51,1.11.83,2.37.54,3.58.54,1.45,0,1.56-.18,1.05-1.55-.1-.25-.18-.52-.44-.67-.01-.11-.03-.22-.04-.34ZM106.27,67.12c-1.08-.2-2.13.2-3.2.18-.33,0-.62.13-.45.69.41,1.36,1.12,2.62,1.31,4.05.05.38.26.73.38,1.1.14.41.37.48.75.26.67-.39,1.4-.66,2.03-1.14.95-.74,1.59-1.68,1.49-2.89-.1-1.16-.8-1.96-1.96-2.29-.12.01-.24.03-.36.04Z"/>
      <path class="cls-2" d="M100.07,72.12c.51-.17.5.43.84.23.05-.03.08-.17.07-.25-.07-.37-.39-.34-.65-.46-.77-.36-1.51-.82-2.23-1.28-.24-.15-.25-.43.07-.57.39-.16.31-.49.28-.77-.05-.42-.49-.41-.75-.56-.31-.18-.3.16-.32.35-.04.35-.16.74-.15,1.02.01.45-.12.81-.45.75-.6-.12,0-.58-.09-.9-.29-.02-.57.19-.86-.04-.22-.17-.26-.48-.04-.46.85.07.45-.37.31-.67-.23-.51,0-.49.43-.53,1.09-.09,2.18.28,3.27,0,.61-.15.98.13,1.23.75.26.68.72,1.27.97,1.96.2.54.54,1.17.16,1.63-.36.44-1.1.39-1.65.59-.29.1-.28-.52-.43-.81ZM99.87,70.15c-.37.02-.62-.09-.82.2.29.21.51.21.82-.2Z"/>
      <path class="cls-2" d="M93.69,65.05c.03.11.05.23.07.34-.31.25-.2.71-.52,1.02.72-.37.94.73,1.6.44,0,0,0-.01.01-.01-.03.28.03.44.34.6.57.29.57.71,0,1.07h0c-.27-.42-.6-.75-1.09-.91h0c-.27-.85-1.01-.82-1.68-.85-.21,0-.5.13-.57.38-.1.35.25.25.41.33.17.09.22.23.13.37-.11.17-.32.15-.5.13-.87-.1-1.55-1.54-1.17-2.35.31-.66.54-1.37.72-2.07.08-.32.27-.42.48-.41.24.02.59,0,.67.33.16.69.81,1.02,1.12,1.59Z"/>
      <path class="cls-2" d="M103.3,63.59c-.54-.33-.93-.68-1.49-.27-.18.13-.55.03-.49-.4.07-.44-.41-.96.23-1.34.14-.08.31-.5.02-.63-1.12-.51-.08-.5.14-.74.74-.81,1.82-.23,2.73-.95-.09.54-.43.74-.04,1.14.44.46.6.07.89-.02.41-.12.73-.04.78.46.02.16-.04.35-.22.31-1.23-.29-2.23.32-3.27.81-.14.07-.28.11-.27.3.01.15.14.24.24.21,1.4-.49.58.59.74,1.12Z"/>
      <path class="cls-2" d="M106.43,65.83c-.17,0-.34-.01-.51-.02-.17-.42-.23-.92-.74-1.12h0c.01-.4-.01-.74-.32-1.08-.35-.38-.34-.87.15-1.16.47-.28.93-.17,1.28.27.16.21.18.39,0,.64-.7.99-.52,1.54.6,1.79,0,.34-.56.29-.47.67Z"/>
      <path class="cls-2" d="M99.09,74.7c-.42-.03-.9.08-.94-.41-.03-.42-.63-.88.14-1.31.63-.35.82-.01.98.42.06.17,0,.4.24.34.33-.07.61-.15.63.32.02.39-.4.37-.59.57-.1.1-.34.06-.45.07ZM98.53,73.65c.05.02.11.07.15.06.04-.01.05-.09.07-.14-.05-.02-.11-.07-.15-.06-.04.01-.05.09-.07.14Z"/>
      <path class="cls-2" d="M94.65,58.71c-.15-.08-.6.07-.49-.35.08-.31.42-.54.74-.52.39.02.26.39.27.63,0,.35-.19.39-.53.24Z"/>
      <path class="cls-2" d="M107.71,76.55c-.26.08-.51.19-.51-.16,0-.28.22-.4.49-.41.26,0,.51.09.52.37.02.54-.38.13-.5.2Z"/>
      <path class="cls-2" d="M109.37,61.43c-.33-.37-.48-.86-1.15-.8,1-.52,1.1-.44,1.15.8Z"/>
      <path class="cls-2" d="M94.1,67.6c-.17.77-.81.69-1.53.89.47-.65,1.09-.6,1.53-.89,0,0,0,0,0,0Z"/>
      <path class="cls-2" d="M101.72,73.24c.37-.77.72-.18.97.07.17.17-.11.31-.27.26-.24-.07-.46-.22-.69-.33h0Z"/>
      <path class="cls-2" d="M95.67,60.28q-1.02-.07-.85-.86c.19.31.34.57.85.86Z"/>
      <path class="cls-2" d="M105.18,64.69c-.05.27-.1.56-.48.44-.07-.02-.16-.14-.15-.19.07-.42.42-.18.64-.25,0,0,0,0,0,0Z"/>
      <path class="cls-2" d="M95.19,68.51c-.06.22.28.44,0,.65-.04.03-.23-.07-.28-.16-.16-.28-.05-.45.27-.49,0,0,0,0,0,0Z"/>
      <path class="cls-2" d="M91.8,68.42s-.05.04-.07.04c-.02,0-.04-.03-.06-.05.04,0,.09,0,.13.01Z"/>
      <path class="cls-2" d="M94.82,69.6s.03-.05.04-.07c-.01.03-.03.05-.04.08,0,0,0,0,0,0Z"/>
      <path class="cls-2" d="M95.73,70.15s.03-.05.04-.08c-.01.03-.03.05-.04.08,0,0,0,0,0,0Z"/>
      <path class="cls-2" d="M101.73,73.24s-.03.05-.04.08c.01-.03.03-.05.04-.08,0,0,0,0,0,0Z"/>
      <path class="cls-3" d="M113.41,65.87c-.85.13-1.3-.31-1.78-.66.62-.02,1.19.1,1.78.66Z"/>
      <path class="cls-3" d="M112.81,71.79c-.03.18-.07.36-.31.32-.06,0-.15-.13-.14-.16.08-.21.28-.14.45-.16,0,0,0,0,0,0Z"/>
      <path class="cls-2" d="M112.81,63.42c.22.07.57-.16.64.26.01.07-.14.21-.23.23-.43.1-.39-.23-.41-.49,0,0,0,0,0,0Z"/>
      <path class="cls-2" d="M106.27,67.12c.12-.01.24-.03.36-.04.03.16,0,.29.19.44,1.09.82,1.61,1.83,1.22,2.55-.47.87-1.1,1.63-1.91,2.26-.67.51-1.1.3-1.56-.17-.55-.57.07-.9.32-1.26.12-.17.39-.4.17-.45-.91-.18-.23-.64-.15-.97-.16-.03-.25-.05-.33-.07-.31-.06-.8.18-.83-.41-.04-.66.48-.49.83-.49.59,0,.91-.36,1.19-.89.13.28.25.51.36.75.4-.22.8-.41.19-.82-.08-.05-.03-.29-.04-.44Z"/>
      <path class="cls-3" d="M106.27,67.12c0,.15-.04.39.04.44.61.41.21.6-.19.82-.11-.24-.23-.47-.36-.75-.27.52-.59.88-1.19.89-.35,0-.87-.17-.83.49.03.59.52.35.83.41.09.02.18.03.33.07-.08.33-.76.78.15.97.23.05-.05.28-.17.45-.25.36-.88.69-.32,1.26.46.47.89.69,1.56.17.82-.63,1.44-1.39,1.91-2.26.39-.73-.13-1.73-1.22-2.55-.2-.15-.16-.28-.19-.44,1.16.33,1.86,1.13,1.96,2.29.1,1.21-.54,2.15-1.49,2.89-.62.49-1.36.75-2.03,1.14-.38.22-.61.15-.75-.26-.13-.37-.34-.73-.38-1.1-.19-1.43-.9-2.69-1.31-4.05-.17-.56.12-.7.45-.69,1.07.02,2.12-.38,3.2-.18ZM104.9,67.88c-.42-.26-.85-.48-1.17.21.46-.08.82-.14,1.17-.21Z"/>
      <path class="cls-3" d="M99.94,64.3c.25.15.34.42.44.67.51,1.36.41,1.55-1.05,1.55-1.21,0-2.47.29-3.58-.54-1.04-.78-1.12-1.41-.45-2.51.63-1.04,1.6-1.68,2.43-2.48.19-.18.45-.37.73-.26.29.12.2.39.11.63-.61.03-1.05.23-1.04.95,0,.26-.23.29-.38.42-.47.4-1.19.69-.55,1.59.23.33,1.09.68.43,1.38-.02.02.06.18.12.2.17.06.26-.1.38-.19.26-.21.22-.75.59-.73.54.03.66-.04.3-.49-.18-.23-.03-.4.1-.56.13-.16.33-.16.49-.07.22.13.2.38.14.57-.1.36-.37.66-.23,1.09.06.17-.27.33-.1.56.34-.26.69.29,1.04-.01.25-.21.25-.46.17-.74-.1-.33-.27-.66-.09-1.02Z"/>
      <path class="cls-2" d="M99.94,64.3c-.18.36-.01.68.09,1.02.08.28.08.52-.17.74-.35.3-.7-.25-1.04.01-.16-.23.16-.39.1-.56-.14-.42.13-.73.23-1.09.06-.19.08-.44-.14-.57-.16-.1-.36-.09-.49.07-.13.16-.28.33-.1.56.37.45.25.51-.3.49-.36-.02-.33.52-.59.73-.11.09-.21.24-.38.19-.06-.02-.14-.18-.12-.2.66-.69-.2-1.05-.43-1.38-.64-.9.08-1.2.55-1.59.15-.13.39-.16.38-.42-.02-.72.43-.92,1.04-.95.08.02.16.04.24.06-.01.27-.09.55-.03.8.19.69.29,1.46,1.11,1.76.01.11.03.22.04.34Z"/>
      <path class="cls-3" d="M99.9,63.97c-.82-.3-.93-1.07-1.11-1.76-.07-.25.01-.53.03-.8.36.85.72,1.71,1.09,2.56Z"/>
      <path class="cls-3" d="M94.84,66.86c-.66.29-.87-.81-1.6-.44.32-.31.21-.77.52-1.02.28.55.52,1.12,1.07,1.46Z"/>
      <path class="cls-3" d="M99.87,70.15c-.3.41-.52.41-.82.2.2-.29.45-.18.82-.2Z"/>
      <path class="cls-3" d="M98.53,73.65c.02-.05.03-.13.07-.14.04-.01.1.04.15.06-.02.05-.03.13-.07.14-.04.01-.1-.04-.15-.06Z"/>
      <path class="cls-2" d="M104.9,67.88c-.36.06-.71.12-1.17.21.32-.68.75-.46,1.17-.21Z"/>
    </g>
  </g>
</svg>