<svg xmlns="http://www.w3.org/2000/svg" viewBox="0 0 140.96 134.48"><defs><style>.cls-1{fill:none;}.cls-2,.cls-4{fill:#6c6b86;}.cls-2{stroke:#6c6b86;}.cls-2,.cls-5,.cls-6{stroke-miterlimit:10;stroke-width:0.71px;}.cls-3,.cls-6{fill:#595850;}.cls-5{fill:#cfedff;stroke:#fff;}.cls-6{stroke:#595850;}.cls-7{fill:#1c65a6;}.cls-8{fill:#218ec3;}.cls-9{fill:#84ceeb;}.cls-10{fill:#4eb1dc;}.cls-11{fill:#fd4181;}.cls-12{fill:#fefefe;}</style></defs><g id="圖層_2" data-name="圖層 2"><g id="魚魟"><g id="食"><path class="cls-1" d="M110.42,8.3c-.61-.42-1.23-.83-1.85-1.23C109.19,7.47,109.81,7.88,110.42,8.3Z"/><path class="cls-1" d="M31.33,7.3c-.63.41-1.26.82-1.88,1.24C30.07,8.12,30.7,7.71,31.33,7.3Z"/><path class="cls-1" d="M26.85,10.42c-.4.3-.8.59-1.19.91C26.05,11,26.45,10.72,26.85,10.42Z"/><path class="cls-1" d="M29.19,8.72,27.56,9.87Z"/><path class="cls-1" d="M112.26,9.59c-.55-.4-1.1-.78-1.65-1.16C111.16,8.81,111.71,9.19,112.26,9.59Z"/><path class="cls-1" d="M114.11,11c-.4-.32-.81-.62-1.21-.93C113.3,10.38,113.71,10.68,114.11,11Z"/><path class="cls-2" d="M25.66,11.33c.39-.32.79-.61,1.19-.91l.71-.55,1.63-1.15.26-.18c.62-.42,1.25-.83,1.88-1.24h0c-6.59-1-7.41-2.57-7.41-2.57a.76.76,0,0,1,0-.19c-.15,0-.24,0-.28,0-2.68,2.38-2.23,6.74-.86,9.21l1-.85C24.35,12.38,25,11.84,25.66,11.33Z"/><path class="cls-2" d="M110.37,6.83l-1.8.24h0c.62.4,1.24.81,1.85,1.23l.19.13c.55.38,1.1.76,1.65,1.16l.64.48c.4.31.81.61,1.21.93.64.5,1.27,1,1.89,1.55s1,.87,1.48,1.31c3.14-2.65,1.68-7.85-.45-9.11C116.56,6.4,110.37,6.83,110.37,6.83Z"/><path class="cls-3" d="M34.88,6.81c5.28.55,57.54,1.77,65.46.76,2.26-.29,4.79-.74,7.13-1.2,4.24-.84,7.84-1.72,8.07-1.81a1.69,1.69,0,0,1,1.49.19v0c.42-1.67-6.25-2.23-13.76-2.78S79.93,0,70.48,0,49.5.42,42.13,1.11s-13.06,1.39-15.84,2c-2.09.41-2.37,1.14-2.39,1.48,1.05.11,4.76,1.29,8.72,2C33.37,6.62,34.12,6.73,34.88,6.81Z"/><path class="cls-4" d="M23.92,4.73s.82,1.54,7.41,2.57c.43-.27.85-.55,1.29-.81-4-.66-7.67-1.84-8.72-1.95A.76.76,0,0,0,23.92,4.73Z"/><path class="cls-3" d="M23.92,4.73s.82,1.54,7.41,2.57c.43-.27.85-.55,1.29-.81-4-.66-7.67-1.84-8.72-1.95A.76.76,0,0,0,23.92,4.73Z"/><path class="cls-4" d="M115.54,4.56c-.23.09-3.83,1-8.07,1.81l1.1.7,1.8-.24s6.19-.43,6.66-2.08A1.69,1.69,0,0,0,115.54,4.56Z"/><path class="cls-3" d="M115.54,4.56c-.23.09-3.83,1-8.07,1.81l1.1.7,1.8-.24s6.19-.43,6.66-2.08A1.69,1.69,0,0,0,115.54,4.56Z"/><path class="cls-5" d="M117.48,13.86a6,6,0,0,1-1.94,1.08,56.64,56.64,0,0,1-10.14,1.88,280.44,280.44,0,0,1-36.14,2.31c-20.4-.16-32.57-1.84-40.72-2.31a19,19,0,0,1-4.92-1.88,5.22,5.22,0,0,1-.86-1.17C-.16,34.35.29,64,.37,66.66c.72,22.8,12.9,44.6,31.5,55.6a67.88,67.88,0,0,0,6.17,3.2c3,.4,6.77.87,10.44,1.22,7.78.74,12.41,1.67,22,1.67s16.36-.93,24.51-1.48c2.3-.16,4.15-.35,5.67-.53A67.77,67.77,0,0,0,119,115.21c9.1-7.82,15.84-21.72,19.27-33.35C145.31,57.89,136,30.67,117.48,13.86Z"/><path class="cls-2" d="M28.54,16.82c8.15.47,20.32,2.15,40.72,2.31a280.44,280.44,0,0,0,36.14-2.31,56.64,56.64,0,0,0,10.14-1.88,6,6,0,0,0,1.94-1.08c-.48-.44-1-.88-1.48-1.31s-1.25-1.05-1.89-1.55c-.4-.32-.81-.62-1.21-.93l-.64-.48c-.55-.4-1.1-.78-1.65-1.16l-.19-.13c-.61-.42-1.23-.83-1.85-1.23h0C106.18,7.39,101.8,8,98,8.34c-5.56.55-16,.42-26.13.55s-18.76-.13-32.66-.83a74.12,74.12,0,0,1-7.88-.76h0c-.63.41-1.26.82-1.88,1.24l-.26.18L27.56,9.87l-.71.55c-.4.3-.8.6-1.19.91-.66.52-1.31,1.05-1.94,1.59l-1,.85a5.22,5.22,0,0,0,.86,1.17A19,19,0,0,0,28.54,16.82Z"/><path class="cls-4" d="M27.56,9.87l-.71.55Z"/><path class="cls-4" d="M27.56,9.87l-.71.55Z"/><polygon class="cls-4" points="31.33 7.3 31.33 7.3 31.33 7.3 31.33 7.3"/><polygon class="cls-4" points="31.33 7.3 31.33 7.3 31.33 7.3 31.33 7.3"/><path class="cls-4" d="M25.66,11.33c-.66.51-1.31,1.05-1.94,1.59C24.35,12.38,25,11.85,25.66,11.33Z"/><path class="cls-4" d="M25.66,11.33c-.66.51-1.31,1.05-1.94,1.59C24.35,12.38,25,11.85,25.66,11.33Z"/><path class="cls-4" d="M29.45,8.54l-.26.18Z"/><path class="cls-4" d="M29.45,8.54l-.26.18Z"/><path class="cls-4" d="M116,12.55c-.62-.53-1.25-1.05-1.89-1.55C114.75,11.5,115.38,12,116,12.55Z"/><path class="cls-4" d="M116,12.55c-.62-.53-1.25-1.05-1.89-1.55C114.75,11.5,115.38,12,116,12.55Z"/><path class="cls-4" d="M112.9,10.07l-.64-.48Z"/><path class="cls-4" d="M112.9,10.07l-.64-.48Z"/><path class="cls-4" d="M110.61,8.43l-.19-.13Z"/><path class="cls-4" d="M110.61,8.43l-.19-.13Z"/><polygon class="cls-4" points="108.57 7.07 108.57 7.07 108.57 7.07 108.57 7.07"/><polygon class="cls-4" points="108.57 7.07 108.57 7.07 108.57 7.07 108.57 7.07"/><path class="cls-3" d="M100.34,7.57c-7.92,1-60.18-.21-65.46-.76-.76-.08-1.51-.19-2.26-.32-.44.26-.86.54-1.29.81a74.12,74.12,0,0,0,7.88.76c13.9.7,22.52,1,32.66.83s20.57,0,26.13-.55c3.8-.38,8.18-1,10.57-1.27l-1.1-.7C105.13,6.83,102.6,7.28,100.34,7.57Z"/><path class="cls-3" d="M100.34,7.57c-7.92,1-60.18-.21-65.46-.76-.76-.08-1.51-.19-2.26-.32-.44.26-.86.54-1.29.81a74.12,74.12,0,0,0,7.88.76c13.9.7,22.52,1,32.66.83s20.57,0,26.13-.55c3.8-.38,8.18-1,10.57-1.27l-1.1-.7C105.13,6.83,102.6,7.28,100.34,7.57Z"/><path class="cls-4" d="M31.33,7.3h0c.43-.27.85-.55,1.29-.81C32.18,6.75,31.76,7,31.33,7.3Z"/><path class="cls-3" d="M31.33,7.3h0c.43-.27.85-.55,1.29-.81C32.18,6.75,31.76,7,31.33,7.3Z"/><path class="cls-4" d="M31.33,7.3h0c.43-.27.85-.55,1.29-.81C32.18,6.75,31.76,7,31.33,7.3Z"/><path class="cls-4" d="M107.47,6.37l1.1.7h0Z"/><path class="cls-3" d="M40.34,123c-3.35-.45-5.69-.81-5.69-.81s-2,2.59-2,4.81a6.45,6.45,0,0,0,2,4.08s.19.74,12.23,1.85,20,1.3,27.43,1.49,13.34-.38,24.46-1.3,14.83-2.78,14.08-6.12-.74-4.07-2.77-4.07c-1.47,0-3.23.47-7.12,1C83.12,132.11,59.37,131.74,40.34,123Z"/><path class="cls-6" d="M72.25,126.17c-9.59,0-14.22-.93-22-1.67-3.67-.35-7.45-.82-10.44-1.23,13.82,9.3,34.46,10,62.63.88-1.53.19-3.38.38-5.68.53C88.61,125.24,81.84,126.17,72.25,126.17Z"/><path class="cls-7" d="M58.26,50.37a28.91,28.91,0,0,1,7.54-8.82,1.59,1.59,0,0,1,1.79-.3A32.77,32.77,0,0,1,77.3,47,47.85,47.85,0,0,1,88,60.38a26,26,0,0,0,3.23,4.11c.75.86,1.58,1.65,2.33,2.51.31.35.46.32.74,0a70.31,70.31,0,0,1,5.94-6.5,39.34,39.34,0,0,1,4.27-3.79c.33-.24.7-.67,1.11-.43s.39.83.32,1.29c-.67,4.57-2.25,8.68-6,11.72-.87.71-.88.76,0,1.52a17.76,17.76,0,0,1,5.28,9.74c.11.5.37,1.17-.11,1.5s-.91-.18-1.32-.43A43.94,43.94,0,0,1,96,75.48c-.87-.85-1.72-1.71-2.64-2.64A58.38,58.38,0,0,1,82.69,84.2a29.09,29.09,0,0,1,2.77,2.47c.3.34.77.68.62,1.18s-.78.66-1.27.74a25.55,25.55,0,0,1-6.42.09c-2.23-.2-4.43-.59-6.64-.89.06-.17.21-.21.36-.26a24.59,24.59,0,0,0,4.54-2.1A44.52,44.52,0,0,0,89,75.17a13.26,13.26,0,0,0,1.61-2,11.65,11.65,0,0,0,1.44-2,1.44,1.44,0,0,0,0-1.66,28.44,28.44,0,0,0-3.59-5c-.54-.65-1-1.34-1.62-1.95a42.36,42.36,0,0,0-8.69-7.22A31.79,31.79,0,0,0,70,51.72a39.11,39.11,0,0,0-10.93-1.21C58.81,50.52,58.5,50.63,58.26,50.37Z"/><path class="cls-8" d="M58.26,50.37c.24.26.55.15.83.14A39.11,39.11,0,0,1,70,51.72a31.79,31.79,0,0,1,8.09,3.63,42.36,42.36,0,0,1,8.69,7.22c.58.61,1.08,1.3,1.62,1.95-.36,0-.69.14-1.06.14H60.57c-.23,0-.5.09-.69-.15a2.28,2.28,0,0,0-.17-1.24,5.38,5.38,0,0,0-6.1-2.71,5.77,5.77,0,0,0-3.55,3c-.23-.22-.51-.12-.77-.12H40c-.25,0-.54.09-.75-.16a21.43,21.43,0,0,1,4.28-5.8A25.21,25.21,0,0,1,58.26,50.37Z"/><path class="cls-9" d="M90.57,73.13a13.26,13.26,0,0,1-1.61,2A44.52,44.52,0,0,1,76.65,85.43a24.59,24.59,0,0,1-4.54,2.1c-.15,0-.3.09-.36.26a45.92,45.92,0,0,1-7,.42,36.41,36.41,0,0,1-15.14-3.54,29.42,29.42,0,0,1-11.12-9.5,16.66,16.66,0,0,0,3.16-.29c.3.3.61.59.91.9.64.65,1.2,1.37,1.88,2a3.66,3.66,0,0,0,3.19,1.07,4.34,4.34,0,0,0,3.56-4.77,4.51,4.51,0,0,1,.72-.12h5a1.2,1.2,0,0,1,.64.16l-1.09,1.61a3.27,3.27,0,0,0-.61,1,.83.83,0,0,0,1.24,1,4.75,4.75,0,0,0,1.35-1.29,38.38,38.38,0,0,0,3-4.32,6.86,6.86,0,0,0,3.79,6.07,19.64,19.64,0,0,0,7.11,2,14.47,14.47,0,0,0,6-.58c.78-.24.78-.3.24-.88a28.21,28.21,0,0,0-7.5-5.7c.06-.34.33-.25.54-.25H90.05C90.25,72.87,90.52,72.79,90.57,73.13Z"/><path class="cls-10" d="M90.57,73.13c0-.34-.32-.26-.52-.26H71.47c-.21,0-.48-.09-.54.25a19.09,19.09,0,0,0-9.45-2.29,1.3,1.3,0,0,1-.14-.58,13.69,13.69,0,0,0-.51-2.76c-.18-.43-.44-.82-1-.72s-.62.53-.63,1a10.2,10.2,0,0,0,.1,2.34,2.4,2.4,0,0,1-.41,2c-.49.66-.95,1.36-1.42,2a1.2,1.2,0,0,0-.64-.16h-5a4.51,4.51,0,0,0-.72.12,4.1,4.1,0,0,0-1.13-2c-.52-.51-1-1.07-1.48-1.6.31-.59.64-1.18.94-1.78a.73.73,0,0,0-.21-1.06c-.4-.26-.67,0-.92.27A12.42,12.42,0,0,1,46,69.74,7.67,7.67,0,0,1,40.36,71c-1.29-.26-2.59-.46-3.89-.68a25.47,25.47,0,0,1,2.78-7c.21.25.5.16.75.16h9.29c.26,0,.54-.1.77.12-.26,1.26.61,1.77,1.4,1.65a1.8,1.8,0,0,0,.92-.63,3.33,3.33,0,0,1,5.17,0c.92.9,1.51.89,2.33-.06.19.24.46.15.69.15H87.36c.37,0,.7-.14,1.06-.14a28.44,28.44,0,0,1,3.59,5,1.44,1.44,0,0,1,0,1.66A11.65,11.65,0,0,1,90.57,73.13Zm-11.66-4.7c2.43.23,5.52.76,8.61,1.24,1,.16,1.94.63,3,.37.29-.07.53-.13.59-.44a.72.72,0,0,0-.28-.78,3,3,0,0,0-1-.4,82.4,82.4,0,0,0-17.27-2.25c-2.33-.07-4.65-.17-7-.23a13.93,13.93,0,0,0-1.94.1c-.45,0-.84.25-.85.79s.32.68.75.8a3.59,3.59,0,0,0,.93.11c2.54.08,5.07.26,7.61.37C74.13,68.21,76.17,68.29,78.91,68.43Z"/><path class="cls-7" d="M36.47,70.32c1.3.22,2.6.42,3.89.68A7.67,7.67,0,0,0,46,69.74a12.42,12.42,0,0,0,2.38-1.84c.25-.26.52-.53.92-.27a.73.73,0,0,1,.21,1.06c-.3.6-.63,1.19-.94,1.78a2.61,2.61,0,0,1-.3-.27c-.39-.54-.65-.52-1.09,0a9.48,9.48,0,0,1-5.37,3.34,2.5,2.5,0,0,0-1,.26l.88,1a16.66,16.66,0,0,1-3.16.29,3.82,3.82,0,0,1-2.81-2.44A1.79,1.79,0,0,1,36.47,70.32Z"/><path class="cls-7" d="M59.88,64.5c-.82,1-1.41,1-2.33.06a3.33,3.33,0,0,0-5.17,0,1.8,1.8,0,0,1-.92.63c-.79.12-1.66-.39-1.4-1.65a5.77,5.77,0,0,1,3.55-3,5.38,5.38,0,0,1,6.1,2.71A2.28,2.28,0,0,1,59.88,64.5Z"/><path class="cls-7" d="M61.48,70.83a19.09,19.09,0,0,1,9.45,2.29,28.21,28.21,0,0,1,7.5,5.7c.54.58.54.64-.24.88a14.47,14.47,0,0,1-6,.58,19.64,19.64,0,0,1-7.11-2,6.86,6.86,0,0,1-3.79-6.07C61.44,71.73,61.2,71.25,61.48,70.83Z"/><path class="cls-11" d="M41.62,74.88l-.88-1a2.5,2.5,0,0,1,1-.26,9.48,9.48,0,0,0,5.37-3.34c.44-.56.7-.58,1.09,0a2.61,2.61,0,0,0,.3.27c.49.53,1,1.09,1.48,1.6a4.1,4.1,0,0,1,1.13,2,4.34,4.34,0,0,1-3.56,4.77,3.66,3.66,0,0,1-3.19-1.07c-.68-.62-1.24-1.34-1.88-2C42.23,75.47,41.92,75.18,41.62,74.88Z"/><path class="cls-12" d="M61.48,70.83c-.28.42,0,.9-.15,1.34a38.38,38.38,0,0,1-3,4.32A4.75,4.75,0,0,1,57,77.78a.83.83,0,0,1-1.24-1,3.27,3.27,0,0,1,.61-1l1.09-1.61c.47-.68.93-1.38,1.42-2a2.4,2.4,0,0,0,.41-2,10.2,10.2,0,0,1-.1-2.34c0-.45.12-.89.63-1s.81.29,1,.72a13.69,13.69,0,0,1,.51,2.76A1.3,1.3,0,0,0,61.48,70.83Z"/><path class="cls-12" d="M78.91,68.43c-2.74-.14-4.78-.22-6.83-.32-2.54-.11-5.07-.29-7.61-.37a3.59,3.59,0,0,1-.93-.11c-.43-.12-.77-.31-.75-.8s.4-.74.85-.79a13.93,13.93,0,0,1,1.94-.1c2.33.06,4.65.16,7,.23a82.4,82.4,0,0,1,17.27,2.25,3,3,0,0,1,1,.4.72.72,0,0,1,.28.78c-.06.31-.3.37-.59.44-1.05.26-2-.21-3-.37C84.43,69.19,81.34,68.66,78.91,68.43Z"/></g></g></g></svg>