<?xml version="1.0" encoding="UTF-8"?>
<svg id="_圖層_2" data-name="圖層_2" xmlns="http://www.w3.org/2000/svg" viewBox="0 0 140.96 134.48">
  <defs>
    <style>
      .cls-1 {
        fill: #fbfbfb;
      }

      .cls-2 {
        fill: none;
      }

      .cls-3, .cls-4 {
        fill: #595850;
      }

      .cls-4 {
        stroke: #595850;
      }

      .cls-4, .cls-5, .cls-6 {
        stroke-miterlimit: 10;
        stroke-width: .71px;
      }

      .cls-5 {
        stroke: #6c6b86;
      }

      .cls-5, .cls-7 {
        fill: #6c6b86;
      }

      .cls-6 {
        fill: #cfedff;
        stroke: #fff;
      }

      .cls-8 {
        fill: #050505;
      }
    </style>
  </defs>
  <g id="_魚魟" data-name="魚魟">
    <g>
      <path class="cls-2" d="M110.42,8.3c-.61-.42-1.23-.83-1.85-1.22.62.4,1.24.8,1.85,1.22Z"/>
      <path class="cls-2" d="M31.33,7.3c-.63.4-1.26.82-1.88,1.24.62-.42,1.25-.84,1.88-1.24Z"/>
      <path class="cls-2" d="M26.85,10.42c-.4.3-.8.6-1.19.91.39-.31.79-.61,1.19-.91Z"/>
      <path class="cls-2" d="M29.19,8.72c-.55.38-1.09.76-1.63,1.15.54-.39,1.08-.78,1.63-1.15Z"/>
      <path class="cls-2" d="M112.26,9.59c-.54-.4-1.09-.78-1.64-1.16.55.38,1.1.77,1.64,1.16Z"/>
      <path class="cls-2" d="M114.11,11c-.4-.32-.81-.62-1.21-.93.41.31.81.61,1.21.93Z"/>
      <path class="cls-5" d="M25.66,11.33c.39-.31.79-.61,1.19-.91.24-.18.48-.36.72-.54.54-.39,1.08-.78,1.63-1.15.08-.06.17-.12.25-.18.62-.42,1.25-.84,1.88-1.24h0c-6.59-1.04-7.41-2.58-7.41-2.58,0,0-.03-.07-.02-.18-.15-.02-.24,0-.28.02-2.69,2.38-2.23,6.74-.86,9.2.31-.28.63-.56.96-.84.63-.55,1.28-1.08,1.94-1.6Z"/>
      <path class="cls-5" d="M110.37,6.83s-.69.1-1.8.25c0,0,0,0,0,0,.62.4,1.24.8,1.85,1.22.06.04.13.09.19.13.55.38,1.1.77,1.64,1.16.22.16.43.32.64.48.41.31.81.61,1.21.93.64.5,1.27,1.02,1.89,1.55.5.43.99.87,1.48,1.31,3.14-2.65,1.68-7.85-.45-9.11-.47,1.65-6.66,2.08-6.66,2.08Z"/>
      <path class="cls-3" d="M34.88,6.81c5.28.56,57.54,1.77,65.47.76,2.26-.29,4.79-.73,7.13-1.2,4.24-.84,7.84-1.72,8.07-1.81.5-.19,1.02-.1,1.49.18,0,0,0-.02.01-.02.42-1.67-6.25-2.22-13.76-2.78-7.51-.56-23.35-1.95-32.8-1.95s-20.99.42-28.35,1.11c-7.37.69-13.06,1.39-15.84,1.95-2.08.42-2.37,1.15-2.38,1.49,1.05.11,4.75,1.28,8.71,1.95.75.13,1.51.24,2.26.32Z"/>
      <path class="cls-7" d="M23.92,4.73s.82,1.54,7.41,2.58c.43-.27.85-.55,1.28-.81-3.96-.67-7.66-1.84-8.71-1.95,0,.11.02.18.02.18Z"/>
      <path class="cls-3" d="M23.92,4.73s.82,1.54,7.41,2.58c.43-.27.85-.55,1.28-.81-3.96-.67-7.66-1.84-8.71-1.95,0,.11.02.18.02.18Z"/>
      <path class="cls-7" d="M115.54,4.56c-.23.08-3.83.97-8.07,1.81.37.23.73.47,1.1.7,1.11-.15,1.8-.25,1.8-.25,0,0,6.19-.43,6.66-2.08-.48-.28-.99-.37-1.49-.18Z"/>
      <path class="cls-3" d="M115.54,4.56c-.23.08-3.83.97-8.07,1.81.37.23.73.47,1.1.7,1.11-.15,1.8-.25,1.8-.25,0,0,6.19-.43,6.66-2.08-.48-.28-.99-.37-1.49-.18Z"/>
      <path class="cls-6" d="M117.48,13.86c-.52.44-1.16.81-1.95,1.08-1.19.41-5.36,1.4-10.14,1.87-4.78.48-18.22,2.45-36.14,2.31-20.4-.16-32.57-1.84-40.72-2.31-1.24-.07-4.71-1.67-4.92-1.87-.31-.3-.6-.71-.86-1.18C-.16,34.35.29,63.98.37,66.66c.72,22.8,12.9,44.6,31.5,55.59,1.99,1.17,4.05,2.23,6.17,3.2,2.98.4,6.77.87,10.44,1.22,7.78.74,12.42,1.67,22,1.67s16.35-.93,24.51-1.48c2.3-.16,4.15-.34,5.67-.53,6.65-2.75,12.86-6.44,18.31-11.12,9.1-7.82,15.84-21.72,19.27-33.36,7.06-23.97-2.22-51.18-20.76-68Z"/>
      <path class="cls-5" d="M28.54,16.82c8.15.48,20.32,2.15,40.72,2.31,17.91.14,31.36-1.84,36.14-2.31,4.78-.48,8.95-1.47,10.14-1.87.79-.27,1.43-.64,1.95-1.08-.49-.44-.98-.88-1.48-1.31-.62-.53-1.26-1.05-1.89-1.55-.4-.32-.81-.62-1.21-.93-.21-.16-.43-.33-.64-.48-.54-.4-1.09-.78-1.64-1.16-.06-.04-.13-.09-.19-.13-.61-.42-1.23-.83-1.85-1.22,0,0,0,0,0,0-2.4.32-6.77.89-10.57,1.27-5.56.56-15.98.42-26.13.56-10.15.14-18.76-.14-32.66-.83-3.28-.16-5.85-.44-7.88-.76,0,0,0,0,0,0-.63.4-1.26.82-1.88,1.24-.09.06-.17.12-.25.18-.55.38-1.09.76-1.63,1.15-.24.18-.48.36-.72.54-.4.3-.8.6-1.19.91-.65.52-1.3,1.05-1.94,1.6-.32.28-.64.56-.96.84.26.47.55.87.86,1.18.21.2,3.68,1.8,4.92,1.87Z"/>
      <path class="cls-7" d="M27.56,9.87c-.24.18-.48.36-.72.54.24-.18.48-.36.72-.54Z"/>
      <path class="cls-7" d="M27.56,9.87c-.24.18-.48.36-.72.54.24-.18.48-.36.72-.54Z"/>
      <polygon class="cls-7" points="31.33 7.3 31.33 7.3 31.33 7.3 31.33 7.3"/>
      <polygon class="cls-7" points="31.33 7.3 31.33 7.3 31.33 7.3 31.33 7.3"/>
      <path class="cls-7" d="M25.66,11.33c-.66.52-1.3,1.05-1.94,1.6.63-.55,1.28-1.08,1.94-1.6Z"/>
      <path class="cls-7" d="M25.66,11.33c-.66.52-1.3,1.05-1.94,1.6.63-.55,1.28-1.08,1.94-1.6Z"/>
      <path class="cls-7" d="M29.45,8.54c-.09.06-.17.12-.25.18.08-.06.17-.12.25-.18Z"/>
      <path class="cls-7" d="M29.45,8.54c-.09.06-.17.12-.25.18.08-.06.17-.12.25-.18Z"/>
      <path class="cls-7" d="M116,12.55c-.62-.53-1.25-1.05-1.89-1.55.64.5,1.27,1.02,1.89,1.55Z"/>
      <path class="cls-7" d="M116,12.55c-.62-.53-1.25-1.05-1.89-1.55.64.5,1.27,1.02,1.89,1.55Z"/>
      <path class="cls-7" d="M112.9,10.07c-.21-.16-.43-.33-.64-.48.22.16.43.32.64.48Z"/>
      <path class="cls-7" d="M112.9,10.07c-.21-.16-.43-.33-.64-.48.22.16.43.32.64.48Z"/>
      <path class="cls-7" d="M110.61,8.43c-.06-.04-.13-.09-.19-.13.06.04.13.09.19.13Z"/>
      <path class="cls-7" d="M110.61,8.43c-.06-.04-.13-.09-.19-.13.06.04.13.09.19.13Z"/>
      <polygon class="cls-7" points="108.57 7.07 108.57 7.07 108.57 7.07 108.57 7.07"/>
      <polygon class="cls-7" points="108.57 7.07 108.57 7.07 108.57 7.07 108.57 7.07"/>
      <path class="cls-3" d="M100.34,7.57c-7.92,1.01-60.18-.2-65.47-.76-.75-.08-1.51-.19-2.26-.32-.43.26-.86.54-1.28.81,2.03.32,4.61.59,7.88.76,13.9.69,22.52.97,32.66.83,10.15-.14,20.57,0,26.13-.56,3.8-.38,8.17-.95,10.57-1.27-.37-.23-.73-.48-1.1-.7-2.34.46-4.87.91-7.13,1.2Z"/>
      <path class="cls-3" d="M100.34,7.57c-7.92,1.01-60.18-.2-65.47-.76-.75-.08-1.51-.19-2.26-.32-.43.26-.86.54-1.28.81,2.03.32,4.61.59,7.88.76,13.9.69,22.52.97,32.66.83,10.15-.14,20.57,0,26.13-.56,3.8-.38,8.17-.95,10.57-1.27-.37-.23-.73-.48-1.1-.7-2.34.46-4.87.91-7.13,1.2Z"/>
      <path class="cls-7" d="M31.33,7.3h0c.43-.27.85-.55,1.28-.81-.43.26-.86.54-1.28.81Z"/>
      <path class="cls-3" d="M31.33,7.3h0c.43-.27.85-.55,1.28-.81-.43.26-.86.54-1.28.81Z"/>
      <path class="cls-7" d="M31.33,7.3h0c.43-.27.85-.55,1.28-.81-.43.26-.86.54-1.28.81Z"/>
      <path class="cls-7" d="M107.47,6.37c.37.23.73.47,1.1.7h0c-.37-.23-.73-.48-1.1-.7Z"/>
      <path class="cls-3" d="M40.34,123.03c-3.35-.45-5.69-.81-5.69-.81,0,0-2.04,2.59-2.04,4.82s2.04,4.08,2.04,4.08c0,0,.19.74,12.23,1.85,12.05,1.11,20.01,1.3,27.43,1.48,7.41.19,13.34-.37,24.46-1.3,11.12-.93,14.82-2.78,14.08-6.12-.74-3.34-.74-4.08-2.78-4.08-1.46,0-3.23.48-7.11.95-19.84,8.2-43.59,7.83-62.62-.88Z"/>
      <path class="cls-4" d="M72.25,126.17c-9.59,0-14.22-.93-22-1.67-3.67-.35-7.45-.82-10.44-1.22,13.82,9.3,34.46,10.02,62.62.88-1.53.19-3.37.37-5.67.53-8.15.56-14.92,1.48-24.51,1.48Z"/>
    </g>
    <g>
      <path class="cls-8" d="M49.46,84.31c4.6.28,8.36-1.57,11.67-4.59,1.96-1.79,3.64-3.84,5.46-5.75,1.77-1.86,2.45-1.96,4.69-.68,3.93,2.25,7.85,4.5,11.77,6.75,1.37.79,1.71,1.4,1.42,2.91-.61,3.19-1.49,6.31-3.23,9.1-3.35,5.37-9.84,7.93-16.12,6.41-3.81-.92-7.16-2.81-10.44-4.85-2.76-1.72-5.38-3.61-7.58-6.02-.45-.49-.91-.99-1.18-1.61-.41-.94-.07-1.55.95-1.69.44-.06.89-.06,1.33-.05.42,0,.84.05,1.26.08ZM69.86,86.58c-1.04,3.33-2.22,6.56-5.44,8.58.75.36,1.5.47,2.22.68.59.17,1.08.03,1.59-.3,3.24-2.07,5.79-4.76,7.61-8.15.11-.2.12-.49.56-.59-.65,3.06-1.42,5.98-3.43,8.41.32.12.56-.05.8-.15,1.91-.82,3.47-2.08,4.71-3.74,1.53-2.05,2.23-4.45,2.88-6.86.47-1.72.24-2.23-1.28-3.1-3.04-1.75-6.09-3.5-9.14-5.24-1.26-.72-2.01-.6-3.02.47-1.07,1.13-2.12,2.28-3.2,3.4-2.18,2.25-4.55,4.26-7.45,5.55-.9.4-1.84.72-2.75,1.1-.4.17-.9.38-.81.92.1.6.39,1.12,1.06,1.29,2.82.69,5.39.26,7.67-1.63.11-.09.19-.28.48-.17-1.34,2.06-3.13,3.47-5.42,4.38.89.7,1.79,1.16,2.64,1.71.48.31.94.33,1.47.17,2.78-.8,4.87-2.57,6.68-4.73.55-.66,1.05-1.36,1.57-2.04Z"/>
      <path class="cls-8" d="M84.56,68.43c-1.2-1.52-2.73-2.41-4.68-2.69.93-1.48,1.79-2.86,2.65-4.24,3.98-6.37,7.97-12.74,11.94-19.12.44-.7.98-1.19,1.84-1.15,1.36.06,2.11,1.46,1.44,2.72-1.23,2.31-2.48,4.61-3.72,6.92-3.02,5.61-6.04,11.23-9.07,16.84-.12.22-.24.43-.41.72Z"/>
      <path class="cls-8" d="M71.1,70c3.33-1.54,6.54-2.44,9.8-.56,3.23,1.87,4.04,5.08,4.36,8.68-4.75-2.72-9.36-5.37-14.16-8.12Z"/>
      <path class="cls-8" d="M92.62,87.22c0-1.53,1.2-2.74,2.71-2.73,1.49.02,2.67,1.2,2.68,2.69,0,1.51-1.22,2.74-2.72,2.73-1.49-.01-2.67-1.2-2.67-2.69ZM94.42,87.24c.07.52.39.87.93.84.53-.03.88-.37.84-.93-.04-.5-.34-.83-.88-.82-.56.01-.85.33-.89.91Z"/>
      <path class="cls-8" d="M98.03,97.11c-1,0-1.81-.78-1.82-1.77-.01-.99.79-1.83,1.75-1.85,1.03-.02,1.84.78,1.84,1.82,0,1.01-.77,1.79-1.77,1.8ZM98.06,95.88c.26-.04.5-.18.53-.53.03-.39-.22-.61-.56-.63-.36-.02-.6.23-.59.6,0,.33.22.53.63.56Z"/>
      <path class="cls-8" d="M88.99,97.11c0,.99-.8,1.81-1.77,1.82-1,0-1.85-.86-1.83-1.85.02-.98.84-1.78,1.82-1.78.97,0,1.78.82,1.78,1.81ZM87.19,97.72c.34-.05.59-.21.6-.6,0-.35-.19-.57-.52-.6-.36-.03-.63.17-.66.54-.03.37.2.58.59.66Z"/>
      <path class="cls-1" d="M94.42,87.24c.04-.58.34-.9.89-.91.54-.01.84.31.88.82.04.56-.31.91-.84.93-.54.03-.85-.31-.93-.84Z"/>
      <path class="cls-1" d="M98.06,95.88c-.41-.03-.62-.23-.63-.56,0-.37.23-.61.59-.6.34.01.59.24.56.63-.03.35-.27.49-.53.53Z"/>
      <path class="cls-1" d="M87.19,97.72c-.38-.07-.61-.29-.59-.66.03-.38.3-.57.66-.54.33.03.53.25.52.6,0,.39-.26.55-.6.6Z"/>
    </g>
  </g>
</svg>