<?xml version="1.0" encoding="UTF-8"?>
<svg id="_圖層_2" data-name="圖層_2" xmlns="http://www.w3.org/2000/svg" viewBox="0 0 140.96 134.48">
  <defs>
    <style>
      .cls-1 {
        fill: #34220d;
      }

      .cls-2 {
        fill: #ec6c30;
      }

      .cls-3 {
        fill: #f4af3e;
      }

      .cls-4 {
        fill: #82cdeb;
      }

      .cls-5 {
        fill: #1c66a6;
      }

      .cls-6 {
        fill: none;
      }

      .cls-7, .cls-8 {
        fill: #595850;
      }

      .cls-9 {
        fill: #49acd8;
      }

      .cls-10 {
        fill: #2590c5;
      }

      .cls-8 {
        stroke: #595850;
      }

      .cls-8, .cls-11, .cls-12 {
        stroke-miterlimit: 10;
        stroke-width: .71px;
      }

      .cls-13 {
        fill: #030303;
      }

      .cls-14 {
        fill: #fe8e02;
      }

      .cls-11 {
        stroke: #6c6b86;
      }

      .cls-11, .cls-15 {
        fill: #6c6b86;
      }

      .cls-16 {
        fill: #feca89;
      }

      .cls-17 {
        fill: #fefefe;
      }

      .cls-12 {
        fill: #cfedff;
        stroke: #fff;
      }
    </style>
  </defs>
  <g id="_魚魟" data-name="魚魟">
    <g>
      <path class="cls-6" d="M110.42,8.3c-.61-.42-1.23-.83-1.85-1.22.62.4,1.24.8,1.85,1.22Z"/>
      <path class="cls-6" d="M31.33,7.3c-.63.4-1.26.82-1.88,1.24.62-.42,1.25-.84,1.88-1.24Z"/>
      <path class="cls-6" d="M26.85,10.42c-.4.3-.8.6-1.19.91.39-.31.79-.61,1.19-.91Z"/>
      <path class="cls-6" d="M29.19,8.72c-.55.38-1.09.76-1.63,1.15.54-.39,1.08-.78,1.63-1.15Z"/>
      <path class="cls-6" d="M112.26,9.59c-.54-.4-1.09-.78-1.64-1.16.55.38,1.1.77,1.64,1.16Z"/>
      <path class="cls-6" d="M114.11,11c-.4-.32-.81-.62-1.21-.93.41.31.81.61,1.21.93Z"/>
      <path class="cls-11" d="M25.66,11.33c.39-.31.79-.61,1.19-.91.24-.18.48-.36.72-.54.54-.39,1.08-.78,1.63-1.15.08-.06.17-.12.25-.18.62-.42,1.25-.84,1.88-1.24h0c-6.59-1.04-7.41-2.58-7.41-2.58,0,0-.03-.07-.02-.18-.15-.02-.24,0-.28.02-2.69,2.38-2.23,6.74-.86,9.2.31-.28.63-.56.96-.84.63-.55,1.28-1.08,1.94-1.6Z"/>
      <path class="cls-11" d="M110.37,6.83s-.69.1-1.8.25c0,0,0,0,0,0,.62.4,1.24.8,1.85,1.22.06.04.13.09.19.13.55.38,1.1.77,1.64,1.16.22.16.43.32.64.48.41.31.81.61,1.21.93.64.5,1.27,1.02,1.89,1.55.5.43.99.87,1.48,1.31,3.14-2.65,1.68-7.85-.45-9.11-.47,1.65-6.66,2.08-6.66,2.08Z"/>
      <path class="cls-7" d="M34.88,6.81c5.28.56,57.54,1.77,65.47.76,2.26-.29,4.79-.73,7.13-1.2,4.24-.84,7.84-1.72,8.07-1.81.5-.19,1.02-.1,1.49.18,0,0,0-.02.01-.02.42-1.67-6.25-2.22-13.76-2.78-7.51-.56-23.35-1.95-32.8-1.95s-20.99.42-28.35,1.11c-7.37.69-13.06,1.39-15.84,1.95-2.08.42-2.37,1.15-2.38,1.49,1.05.11,4.75,1.28,8.71,1.95.75.13,1.51.24,2.26.32Z"/>
      <path class="cls-15" d="M23.92,4.73s.82,1.54,7.41,2.58c.43-.27.85-.55,1.28-.81-3.96-.67-7.66-1.84-8.71-1.95,0,.11.02.18.02.18Z"/>
      <path class="cls-7" d="M23.92,4.73s.82,1.54,7.41,2.58c.43-.27.85-.55,1.28-.81-3.96-.67-7.66-1.84-8.71-1.95,0,.11.02.18.02.18Z"/>
      <path class="cls-15" d="M115.54,4.56c-.23.08-3.83.97-8.07,1.81.37.23.73.47,1.1.7,1.11-.15,1.8-.25,1.8-.25,0,0,6.19-.43,6.66-2.08-.48-.28-.99-.37-1.49-.18Z"/>
      <path class="cls-7" d="M115.54,4.56c-.23.08-3.83.97-8.07,1.81.37.23.73.47,1.1.7,1.11-.15,1.8-.25,1.8-.25,0,0,6.19-.43,6.66-2.08-.48-.28-.99-.37-1.49-.18Z"/>
      <path class="cls-12" d="M117.48,13.86c-.52.44-1.16.81-1.95,1.08-1.19.41-5.36,1.4-10.14,1.87-4.78.48-18.22,2.45-36.14,2.31-20.4-.16-32.57-1.84-40.72-2.31-1.24-.07-4.71-1.67-4.92-1.87-.31-.3-.6-.71-.86-1.18C-.16,34.35.29,63.98.37,66.66c.72,22.8,12.9,44.6,31.5,55.59,1.99,1.17,4.05,2.23,6.17,3.2,2.98.4,6.77.87,10.44,1.22,7.78.74,12.42,1.67,22,1.67s16.35-.93,24.51-1.48c2.3-.16,4.15-.34,5.67-.53,6.65-2.75,12.86-6.44,18.31-11.12,9.1-7.82,15.84-21.72,19.27-33.36,7.06-23.97-2.22-51.18-20.76-68Z"/>
      <path class="cls-11" d="M28.54,16.82c8.15.48,20.32,2.15,40.72,2.31,17.91.14,31.36-1.84,36.14-2.31,4.78-.48,8.95-1.47,10.14-1.87.79-.27,1.43-.64,1.95-1.08-.49-.44-.98-.88-1.48-1.31-.62-.53-1.26-1.05-1.89-1.55-.4-.32-.81-.62-1.21-.93-.21-.16-.43-.33-.64-.48-.54-.4-1.09-.78-1.64-1.16-.06-.04-.13-.09-.19-.13-.61-.42-1.23-.83-1.85-1.22,0,0,0,0,0,0-2.4.32-6.77.89-10.57,1.27-5.56.56-15.98.42-26.13.56-10.15.14-18.76-.14-32.66-.83-3.28-.16-5.85-.44-7.88-.76,0,0,0,0,0,0-.63.4-1.26.82-1.88,1.24-.09.06-.17.12-.25.18-.55.38-1.09.76-1.63,1.15-.24.18-.48.36-.72.54-.4.3-.8.6-1.19.91-.65.52-1.3,1.05-1.94,1.6-.32.28-.64.56-.96.84.26.47.55.87.86,1.18.21.2,3.68,1.8,4.92,1.87Z"/>
      <path class="cls-15" d="M27.56,9.87c-.24.18-.48.36-.72.54.24-.18.48-.36.72-.54Z"/>
      <path class="cls-15" d="M27.56,9.87c-.24.18-.48.36-.72.54.24-.18.48-.36.72-.54Z"/>
      <polygon class="cls-15" points="31.33 7.3 31.33 7.3 31.33 7.3 31.33 7.3"/>
      <polygon class="cls-15" points="31.33 7.3 31.33 7.3 31.33 7.3 31.33 7.3"/>
      <path class="cls-15" d="M25.66,11.33c-.66.52-1.3,1.05-1.94,1.6.63-.55,1.28-1.08,1.94-1.6Z"/>
      <path class="cls-15" d="M25.66,11.33c-.66.52-1.3,1.05-1.94,1.6.63-.55,1.28-1.08,1.94-1.6Z"/>
      <path class="cls-15" d="M29.45,8.54c-.09.06-.17.12-.25.18.08-.06.17-.12.25-.18Z"/>
      <path class="cls-15" d="M29.45,8.54c-.09.06-.17.12-.25.18.08-.06.17-.12.25-.18Z"/>
      <path class="cls-15" d="M116,12.55c-.62-.53-1.25-1.05-1.89-1.55.64.5,1.27,1.02,1.89,1.55Z"/>
      <path class="cls-15" d="M116,12.55c-.62-.53-1.25-1.05-1.89-1.55.64.5,1.27,1.02,1.89,1.55Z"/>
      <path class="cls-15" d="M112.9,10.07c-.21-.16-.43-.33-.64-.48.22.16.43.32.64.48Z"/>
      <path class="cls-15" d="M112.9,10.07c-.21-.16-.43-.33-.64-.48.22.16.43.32.64.48Z"/>
      <path class="cls-15" d="M110.61,8.43c-.06-.04-.13-.09-.19-.13.06.04.13.09.19.13Z"/>
      <path class="cls-15" d="M110.61,8.43c-.06-.04-.13-.09-.19-.13.06.04.13.09.19.13Z"/>
      <polygon class="cls-15" points="108.57 7.07 108.57 7.07 108.57 7.07 108.57 7.07"/>
      <polygon class="cls-15" points="108.57 7.07 108.57 7.07 108.57 7.07 108.57 7.07"/>
      <path class="cls-7" d="M100.34,7.57c-7.92,1.01-60.18-.2-65.47-.76-.75-.08-1.51-.19-2.26-.32-.43.26-.86.54-1.28.81,2.03.32,4.61.59,7.88.76,13.9.69,22.52.97,32.66.83,10.15-.14,20.57,0,26.13-.56,3.8-.38,8.17-.95,10.57-1.27-.37-.23-.73-.48-1.1-.7-2.34.46-4.87.91-7.13,1.2Z"/>
      <path class="cls-7" d="M100.34,7.57c-7.92,1.01-60.18-.2-65.47-.76-.75-.08-1.51-.19-2.26-.32-.43.26-.86.54-1.28.81,2.03.32,4.61.59,7.88.76,13.9.69,22.52.97,32.66.83,10.15-.14,20.57,0,26.13-.56,3.8-.38,8.17-.95,10.57-1.27-.37-.23-.73-.48-1.1-.7-2.34.46-4.87.91-7.13,1.2Z"/>
      <path class="cls-15" d="M31.33,7.3h0c.43-.27.85-.55,1.28-.81-.43.26-.86.54-1.28.81Z"/>
      <path class="cls-7" d="M31.33,7.3h0c.43-.27.85-.55,1.28-.81-.43.26-.86.54-1.28.81Z"/>
      <path class="cls-15" d="M31.33,7.3h0c.43-.27.85-.55,1.28-.81-.43.26-.86.54-1.28.81Z"/>
      <path class="cls-15" d="M107.47,6.37c.37.23.73.47,1.1.7h0c-.37-.23-.73-.48-1.1-.7Z"/>
      <path class="cls-7" d="M40.34,123.03c-3.35-.45-5.69-.81-5.69-.81,0,0-2.04,2.59-2.04,4.82s2.04,4.08,2.04,4.08c0,0,.19.74,12.23,1.85,12.05,1.11,20.01,1.3,27.43,1.48,7.41.19,13.34-.37,24.46-1.3,11.12-.93,14.82-2.78,14.08-6.12-.74-3.34-.74-4.08-2.78-4.08-1.46,0-3.23.48-7.11.95-19.84,8.2-43.59,7.83-62.62-.88Z"/>
      <path class="cls-8" d="M72.25,126.17c-9.59,0-14.22-.93-22-1.67-3.67-.35-7.45-.82-10.44-1.22,13.82,9.3,34.46,10.02,62.62.88-1.53.19-3.37.37-5.67.53-8.15.56-14.92,1.48-24.51,1.48Z"/>
    </g>
    <g>
      <path class="cls-4" d="M43.22,88.9c-.7-.04-1.39-.12-2.07-.24-.62-.1-1.06-.48-1.45-.92-1.54-1.73-2.55-3.77-3.38-5.92-.35-.91-.58-1.86-.89-2.78.32-.43.52-.91.6-1.45.28.75.61,1.47,1.08,2.12.15.21.34.3.55.38.14.05.3.05.42-.08.13-.13.11-.28.04-.42-.13-.27-.28-.54-.42-.81-.38-.76-.76-1.51-.9-2.36.09-.19.27-.11.41-.12,1.02,0,2.03,0,3.05-.01.06.31.01.62.1.92.7,2.49,2.53,3.61,4.84,3.64,1.61.02,2.89-.71,3.78-2.06.36-.55.69-1.12.74-1.81h0c.11-.05.09-.15.08-.24.05-.17.09-.35.14-.52.56,0,1.12,0,1.68,0-.2,1.01-.5,1.99-.95,2.92-.08.16-.14.33-.21.49-.08.19-.11.4.08.52.18.11.4.06.57-.07.23-.17.36-.42.52-.65.03-.04.06-.07.14-.19-.03.6-.18,1.08-.31,1.56-.58,2.19-1.41,4.27-2.73,6.14-.38.54-.84,1.01-1.33,1.46-.29.27-.67.35-1.05.4-.27.04-.55.07-.83.1-.04-.77-.11-1.54-.25-2.3-.05-.29-.19-.43-.49-.39-.47.05-.77.35-1.02.71-.42.59-.58,1.26-.55,1.97Z"/>
      <path class="cls-10" d="M45.74,59.45c1.46.78,2.47,2,3.34,3.36.93,1.44,1.59,3.01,2.11,4.64.03.1.05.2.07.29-.51,0-1.02-.02-1.52.02-1.3.11-2.6.23-3.68,1.07-.04.03-.09.07-.13.07-.74-.12-1.54.25-2.24-.28-.2-.15-.45-.23-.68-.32-1.32-.53-2.71-.57-4.11-.54-1.1.02-2.19.2-3.29.31.66-2.4,1.68-4.62,3.31-6.52.91-1.06,1.96-1.95,3.32-2.41.36.95.96,1.74,1.62,2.49.37.42.78.8,1.26,1.09.34.2.62.12.63-.2.02-.35.09-.7.1-1.05.02-.67-.12-1.33-.09-2.01Z"/>
      <path class="cls-5" d="M34.75,74.87c-.71-.28-1.42-.55-2.13-.83-.18-.07-.36-.11-.55-.09-2.42.26-4.84.57-7.21,1.15-.17.04-.35.06-.52.09-.64.09-.83-.09-.67-.74.42-1.79,1.46-3.01,3.28-3.49.55-.15,1.11-.27,1.68-.31.27-.02.38-.07.23-.38-.51-1.11-.88-2.28-.92-3.51-.05-1.64.36-3.17,1.19-4.58.07-.12.17-.22.27-.32.15-.15.31-.15.46,0,.21.21.37.46.51.71,1.38,2.35,2.4,4.84,2.81,7.55.08.54.3.83.82.97.3.08.59.22.89.33-.09,1.08-.09,2.16-.08,3.24,0,.08,0,.15-.08.2Z"/>
      <path class="cls-1" d="M35.59,68.06c1.1-.11,2.19-.28,3.29-.31,1.4-.03,2.79.02,4.11.54.23.09.49.17.68.32.7.54,1.5.17,2.24.28.04,0,.09-.04.13-.07,1.09-.84,2.39-.96,3.68-1.07.5-.04,1.01-.02,1.52-.02,1.33.09,2.65.21,3.96.48q.61.13.61.76c0,.1,0,.2.02.3.04.27.02.47-.3.59-.41.15-.63.49-.72.92-.15.73-.3,1.46-.47,2.19-.16.72-.44,1.37-1.16,1.72-.17.06-.35.12-.52.18-.3.07-.6.14-.91.21-.71.02-1.43.05-2.14.07-1.2,0-2.3-.24-2.97-1.38-.39-.89-.73-1.79-.89-2.76-.09-.56-.41-.75-.99-.63-.23.05-.43.09-.47.39-.16,1.04-.46,2.04-.92,2.99-.41.66-.98,1.12-1.75,1.27-.43.08-.87.08-1.31.12-1.37,0-2.75,0-3.97-.77h0c0-.06-.03-.09-.08-.11-.03-.04-.07-.08-.1-.11-.38-.62-.5-1.32-.66-2.01-.14-.6-.17-1.22-.44-1.79-.12-.27-.35-.44-.61-.54-.22-.09-.27-.22-.25-.43.01-.11,0-.23,0-.34.02-.75-.14-.65.71-.86.22-.06.44-.1.66-.15ZM51.53,68.6c-.74-.11-1.48-.01-2.22.04-.54.04-1.08.14-1.58.35-.39.17-.73.41-.77.89-.02.1-.06.2-.06.29-.02.96.16,1.89.5,2.79.2.52.57.91,1.12,1.07,1.25.37,2.5.27,3.75-.03.7-.16,1.07-.65,1.27-1.28.31-1,.4-2.03.24-3.07-.06-.37-.25-.62-.6-.76-.52-.21-1.07-.3-1.63-.29ZM43.14,70.05c-.04-.69-.5-1-1.09-1.15-1.58-.41-3.18-.47-4.78-.14-.77.16-1,.49-1,1.29-.05.69-.02,1.37.1,2.05.22,1.28.72,1.83,1.86,2.04.84.15,1.69.18,2.54.1.8-.08,1.52-.36,1.86-1.17.39-.96.6-1.96.51-3Z"/>
      <path class="cls-5" d="M36.03,77.6c-.08.53-.27,1.02-.6,1.45-1.35,1.41-3.07,2.06-4.93,2.45-1.02.21-2.04.24-3.06.02-.48-.1-.48-.11-.2-.49,1.96-2.59,4.45-4.46,7.58-5.41.03-.01.06-.04.1-.06.2-.03.4-.06.6-.09.15.71.26,1.44.51,2.13Z"/>
      <path class="cls-5" d="M52.68,74.88c.17-.06.35-.12.52-.18,2.16.52,4.13,1.46,5.88,2.83.65.51,1.26,1.07,1.82,1.67.23.24.15.32-.12.41-1,.36-2.03.43-3.08.36-1.47-.1-2.88-.43-4.19-1.13-.08-.04-.15-.09-.23-.13-.32-.19-.64-.39-.87-.67-.28-.35.06-.69.1-1.03.09-.7.22-1.4.15-2.12Z"/>
      <path class="cls-5" d="M45.74,59.45c-.03.67.11,1.33.09,2.01-.01.36-.08.7-.1,1.05-.02.32-.29.4-.63.2-.48-.29-.89-.67-1.26-1.09-.66-.75-1.26-1.54-1.62-2.49-.18-.84.02-1.66.17-2.49.13-.76.31-1.51.52-2.26.03-.11.06-.22.12-.32.15-.31.35-.58.74-.57.39,0,.58.29.7.61.4,1.06.67,2.15.89,3.26.14.69.26,1.39.38,2.09Z"/>
      <path class="cls-5" d="M43.22,88.9c-.04-.72.13-1.38.55-1.97.25-.36.55-.66,1.02-.71.3-.03.44.1.49.39.14.76.21,1.53.25,2.3-.02,1.13.04,2.25-.16,3.37-.02.13-.01.31-.17.35-.16.04-.24-.12-.32-.22-.78-1.06-1.37-2.21-1.66-3.5Z"/>
      <path class="cls-9" d="M35.52,75.47c-.2.03-.4.06-.6.09-.06-.23,0-.49-.17-.69.07-.05.08-.12.08-.2-.01-1.08,0-2.16.08-3.24.12-.34.1-.7.17-1.05.27.57.3,1.19.44,1.79.16.69.28,1.39.66,2.01-.4-.06-.6.13-.63.51-.02.26-.02.53-.02.79Z"/>
      <path class="cls-9" d="M49.63,75.16c.71-.02,1.43-.05,2.14-.07.01.39-.12.75-.16,1.14-.56,0-1.12,0-1.68,0-.02-.08-.04-.15-.06-.23,0-.08-.01-.16-.02-.23-.01-.06,0-.13-.08-.15h0c.05-.18-.06-.31-.15-.45Z"/>
      <path class="cls-5" d="M49.63,75.16c.09.14.19.28.15.46-.34-.24-.69-.24-1.07-.09-.51.2-1.05.3-1.58.39-1.93.34-3.84.28-5.73-.22-.5-.13-.78.02-.94.5-.11.22-.01.43.07.62.53,1.24,1.43,2.11,2.72,2.55,1.34.46,2.66.41,3.98-.09.7-.29,1.31-.71,1.79-1.29.26-.32.47-.68.7-1.02-.04.68-.38,1.26-.74,1.81-.89,1.35-2.17,2.07-3.78,2.06-2.3-.02-4.14-1.15-4.84-3.64-.09-.31-.04-.62-.1-.92-.14-.39-.08-.76.07-1.13.44-.04.88-.04,1.31-.12.77-.14,1.34-.6,1.75-1.27,1.09-.16,2.18-.22,3.27,0,.67,1.14,1.77,1.38,2.97,1.38Z"/>
      <path class="cls-1" d="M49.71,76.99c-.23.34-.44.7-.7,1.02-.48.59-1.09,1.01-1.79,1.29.01-.12-.09-.17-.16-.23-.74-.68-1.99-.85-2.95-.38-.34.17-.71.31-.87.71-1.29-.45-2.18-1.31-2.72-2.55-.08-.19-.18-.4-.07-.62,1.25.61,2.56.96,3.94,1.01,1.94.08,3.78-.25,5.48-1.23.02.08.04.15.06.23-.05.17-.09.35-.14.52-.08.06-.1.15-.08.24h0Z"/>
      <path class="cls-17" d="M35.52,75.47c0-.26,0-.53.02-.79.03-.37.23-.57.63-.51.03.04.07.08.1.11,0,.06,0,.11.08.11,0,0,0,0,0,0,.08.69.15,1.39.45,2.03.14.85.53,1.6.9,2.36.13.27.29.54.42.81.07.14.08.29-.04.42-.12.13-.28.13-.42.08-.21-.08-.4-.17-.55-.38-.47-.66-.8-1.38-1.08-2.12-.25-.69-.36-1.41-.51-2.13Z"/>
      <path class="cls-9" d="M36.81,76.42c-.3-.64-.37-1.34-.45-2.03,1.23.77,2.6.77,3.97.77-.15.37-.21.74-.07,1.13-1.02,0-2.03,0-3.05.01-.14,0-.31-.07-.41.12Z"/>
      <path class="cls-5" d="M49.71,77c-.02-.1,0-.18.08-.24,0,.09.03.19-.08.24Z"/>
      <path class="cls-9" d="M43.14,70.05c.09,1.04-.11,2.05-.51,3-.34.81-1.06,1.1-1.86,1.17-.85.08-1.7.05-2.54-.1-1.14-.2-1.63-.76-1.86-2.04-.12-.68-.15-1.36-.1-2.05.54,0,1.08,0,1.62,0,.13,0,.28-.05.38.1-.04.09-.07.19-.1.28-.28.84-.32,1.7-.05,2.54.31.95,1.25,1.28,2.04.74.33-.22.54-.53.69-.89.37-.93.37-1.85,0-2.78.76,0,1.53,0,2.29,0Z"/>
      <path class="cls-9" d="M52.25,74.01c-1.25.31-2.5.4-3.75.03-.54-.16-.92-.54-1.12-1.07-.34-.9-.52-1.82-.5-2.79,0-.1.04-.2.06-.29.74,0,1.49,0,2.23,0-.43,1-.38,2.01-.05,3.01.1.31.3.59.56.8.77.63,1.64.31,1.97-.77.32-1.06.18-2.08-.38-3.04.17,0,.34,0,.5-.01.34,1.35.45,2.73.46,4.12Z"/>
      <path class="cls-17" d="M52.25,74.01c-.01-1.39-.12-2.76-.46-4.12-.09-.43-.17-.86-.26-1.29.56-.02,1.11.07,1.63.29.35.14.54.39.6.76.15,1.04.07,2.07-.24,3.07-.2.63-.57,1.13-1.27,1.28Z"/>
      <path class="cls-10" d="M38.27,70.14c-.1-.14-.25-.09-.38-.1-.54,0-1.08,0-1.62,0,0-.79.24-1.13,1-1.29,1.6-.33,3.2-.27,4.78.14.58.15,1.05.46,1.09,1.15-.76,0-1.53,0-2.29,0-.07-.09-.13-.18-.2-.27-.38-.52-.9-.66-1.5-.43-.4.15-.64.47-.88.8Z"/>
      <path class="cls-9" d="M46.66,73.78c-1.09-.22-2.18-.17-3.27,0,.46-.95.76-1.95.92-2.99.04-.3.25-.34.47-.39.58-.12.9.07.99.63.16.96.5,1.87.89,2.76Z"/>
      <path class="cls-10" d="M51.53,68.6c.09.43.17.86.26,1.29-.17,0-.34,0-.5.01-.84-.79-1.45-.8-2.1,0-.74,0-1.49,0-2.23,0,.04-.49.37-.72.77-.89.5-.22,1.04-.31,1.58-.35.74-.06,1.48-.16,2.22-.04Z"/>
      <path class="cls-9" d="M36.36,74.4c-.07,0-.09-.05-.08-.11.05.02.09.05.08.11Z"/>
      <path class="cls-17" d="M49.88,76c-1.7.98-3.55,1.3-5.48,1.23-1.39-.05-2.7-.4-3.94-1.01.17-.47.44-.63.94-.5,1.9.5,3.81.55,5.73.22.54-.09,1.07-.2,1.58-.39.38-.15.73-.15,1.07.09,0,0,0,0,0,0-.02.08,0,.13.08.15,0,.08.01.16.02.23Z"/>
      <path class="cls-5" d="M49.86,75.77c-.08-.02-.1-.07-.08-.15.08.02.07.09.08.15Z"/>
      <path class="cls-4" d="M43.24,79.39c.16-.4.53-.54.87-.71.95-.46,2.2-.3,2.95.38.07.06.18.11.16.23-1.31.5-2.64.55-3.98.09Z"/>
      <path class="cls-1" d="M38.27,70.14c.24-.32.48-.64.88-.8.6-.23,1.12-.09,1.5.43.07.09.13.18.2.27.37.92.38,1.85,0,2.78-.15.36-.37.67-.69.89-.79.54-1.73.21-2.04-.74-.28-.84-.24-1.7.05-2.54.03-.1.07-.19.1-.28ZM39.78,70.33c0-.33-.31-.65-.62-.65-.39,0-.81.48-.8.88.01.33.33.63.65.62.39-.02.78-.44.77-.85Z"/>
      <path class="cls-1" d="M49.18,69.9c.65-.79,1.26-.79,2.1,0,.55.96.7,1.98.38,3.04-.33,1.08-1.2,1.4-1.97.77-.26-.21-.46-.49-.56-.8-.32-1.01-.37-2.02.05-3.01ZM49.33,70.48c0,.43.25.7.63.7.4,0,.74-.39.73-.85,0-.4-.29-.72-.64-.72-.38,0-.73.41-.72.87Z"/>
      <path class="cls-5" d="M39.78,70.33c0,.41-.38.83-.77.85-.32.01-.63-.29-.65-.62-.02-.4.41-.87.8-.88.31,0,.61.32.62.65Z"/>
      <path class="cls-5" d="M49.33,70.48c0-.46.34-.88.72-.87.34,0,.63.33.64.72,0,.47-.32.86-.73.85-.38,0-.62-.27-.63-.7Z"/>
    </g>
    <g>
      <path class="cls-13" d="M90.14,81.04c-.9,0-2.09-.09-3.28-.22-.19-.02-.31-.01-.41.17-1.59,2.99-4.22,4.7-7.3,5.84-1.69.63-3.45,1.01-5.24,1.2-.58.06-1.01-.16-1.22-.66-.22-.5-.08-1.03.38-1.38,1.82-1.36,2.9-3.22,3.56-5.36.2-.66.32-1.33.2-2.03-.09-.54-.38-.88-.86-1.15-2.98-1.64-5.51-3.8-7.33-6.71-1.81-2.89-2.55-6.02-2.26-9.44.24-2.88.89-5.62,2.21-8.2,2.23-4.32,5.78-7.1,10.28-8.75,2.33-.85,4.75-1.33,7.22-1.58,2.98-.3,5.96-.3,8.94.01,3.88.41,7.58,1.39,10.9,3.51,4.35,2.77,6.91,6.76,7.92,11.77.43,2.13.6,4.27.35,6.43-.34,3.03-1.49,5.74-3.4,8.12-2.69,3.37-6.24,5.47-10.27,6.82-3.27,1.1-6.66,1.53-10.39,1.57ZM77.01,85.18c.34-.11.56-.17.77-.24,3.11-1.03,5.73-2.64,7.07-5.83.18-.44.58-.68,1.07-.64.73.06,1.46.15,2.19.2,4.32.32,8.54-.15,12.61-1.68,3.43-1.29,6.4-3.23,8.61-6.21,1.43-1.93,2.29-4.09,2.57-6.47.23-2.01.06-4.01-.36-5.98-.84-3.93-2.77-7.18-6.07-9.54-3.21-2.29-6.88-3.28-10.73-3.69-2.79-.3-5.59-.3-8.39-.02-2.65.26-5.24.81-7.7,1.85-3.81,1.62-6.7,4.21-8.42,8.02-.95,2.11-1.39,4.34-1.57,6.64-.22,2.8.35,5.41,1.81,7.8,1.65,2.7,3.98,4.65,6.73,6.15,1.1.6,1.69,1.53,1.9,2.75.17,1.01.02,1.98-.24,2.94-.37,1.38-1.02,2.63-1.85,3.94Z"/>
      <path class="cls-17" d="M77.01,85.18c.83-1.3,1.48-2.56,1.85-3.94.26-.96.41-1.94.24-2.94-.21-1.22-.8-2.15-1.9-2.75-2.74-1.5-5.08-3.46-6.73-6.15-1.46-2.4-2.03-5-1.81-7.8.18-2.3.62-4.53,1.57-6.64,1.72-3.81,4.61-6.4,8.42-8.02,2.46-1.04,5.05-1.59,7.7-1.85,2.8-.28,5.6-.28,8.39.02,3.85.42,7.52,1.4,10.73,3.69,3.3,2.36,5.24,5.61,6.07,9.54.42,1.97.59,3.97.36,5.98-.27,2.38-1.14,4.54-2.57,6.47-2.21,2.98-5.19,4.92-8.61,6.21-4.07,1.53-8.29,2-12.61,1.68-.73-.05-1.46-.15-2.19-.2-.5-.04-.89.2-1.07.64-1.33,3.19-3.96,4.8-7.07,5.83-.21.07-.43.14-.77.24ZM79.75,59.81c-.15,1.78.87,3.14,2.63,3.47.19.04.29.15.4.27,1.07,1.14,2.21,2.2,3.4,3.21,1.62,1.38,3.25,2.73,5.04,3.88.04.49.09.97.27,1.43.08.2.21.33.44.34.25.01.39-.12.51-.32.1-.16.01-.37.17-.51.33.19.67.38,1,.58.14.21.09.44.09.67.01.32,0,.64.1.95.11.3.27.5.63.49.38-.01.55-.24.62-.56.05-.22.03-.46.03-.68.22.11.44.21.66.32.94.46,1.86.98,2.92,1.15.6.09.85-.09,1.01-.7.16-.25.18-.54.18-.83.02-1.8-.35-3.56-.51-5.34-.17-1.32-.4-2.64-.69-3.94-.15-1.16-.3-2.32-.45-3.49-.2-1.59-.42-3.17-.61-4.76-.09-.75-.28-1.49-.24-2.26.01-.14.03-.28.04-.42.5-.74.58-1.54.24-2.35-.32-.76-.99-1.05-1.77-1.1-.92-.06-1.83.05-2.73.25-3.16.7-6.06,1.94-8.69,3.87-1.64,1.21-3.05,2.59-4.06,4.36-.31.54-.59,1.11-.62,1.75,0,.06,0,.11-.01.17,0,.03-.01.07-.02.1Z"/>
      <path class="cls-16" d="M95.1,73.02c0,.23.01.46-.03.68-.07.32-.24.55-.62.56-.36.01-.52-.19-.63-.49-.11-.31-.09-.63-.1-.95,0-.22.05-.46-.09-.67.17-.25,0-.5,0-.75-.03-.33-.18-.66-.57-.65-.43,0-.37.4-.42.68,0,.04,0,.09,0,.14-.15.14-.07.35-.17.51-.12.2-.26.33-.51.32-.23-.01-.36-.13-.44-.34-.18-.46-.24-.94-.27-1.43-.06-.51-.12-1.02-.18-1.54.46.27.91.55,1.37.82.25.15.47.15.7-.08.64-.63.86-1.67.5-2.5-.39-.9-1.1-1.27-2.28-1.21-.78.04-1.53.66-1.79,1.48-1.98-1.6-3.88-3.29-5.72-5.06-.37-.36-.79-.68-.98-1.19.12-.23.27-.45.36-.69.37-.97,1.08-1.61,1.98-2.07.5-.25.91-.59,1.26-1.04,1.51-1.97,3.51-3.1,5.97-3.37.9-.1,1.71-.31,2.47-.83.57-.39,1.25-.45,1.94-.27.17.05.34.14.53.08-.04.77.15,1.51.24,2.26.18,1.59.4,3.17.61,4.76.15,1.16.3,2.32.45,3.49-1.09-.03-1.87.57-2.16,1.67-.26.95.13,1.92.96,2.36.41.22.85.32,1.31.39.38.05.63-.02.58-.48.16,1.78.53,3.54.51,5.34,0,.29-.02.57-.18.83-.28.02-.55.01-.81-.09-.98-.39-1.95-.79-2.81-1.42-.66-.48-.79-.42-.9.39-.02.12-.05.24-.07.36ZM89.51,61.05c0-.47.01-1.12-.59-1.6-.52-.41-.98-.92-1.69-.91-1.75.03-2.65,1.1-2.64,2.83,0,1.21,1.24,2.23,2.66,2.21,1.26-.01,2.28-1.06,2.26-2.53ZM93.61,65.34c1.21-.02,2.32-.81,2.3-2.67-.02-1.09-1.23-2.19-2.46-2.2-1.16-.01-2.31,1.1-2.31,2.22,0,1.48,1.09,2.66,2.47,2.65ZM94.62,59.1c1.37-.01,2.29-.93,2.32-2.23.03-1.5-.9-2.54-2.29-2.5-1.36.04-2.37,1.07-2.35,2.48.02,1.48.82,2.26,2.32,2.25ZM99.32,70.96c0-1-.64-1.68-1.55-1.68-.97,0-1.69.75-1.69,1.74,0,.86.74,1.56,1.65,1.56,1.05,0,1.6-.56,1.6-1.62Z"/>
      <path class="cls-3" d="M79.78,59.54c.04-.64.31-1.21.62-1.75,1.02-1.77,2.42-3.16,4.06-4.36,2.63-1.93,5.53-3.16,8.69-3.87.9-.2,1.81-.3,2.73-.25.78.05,1.45.34,1.77,1.1.34.81.26,1.61-.24,2.35-.24-.42-.63-.56-1.08-.58-.88-.05-1.65.28-2.38.72-.21.13-.41.28-.67.28-1.29,0-2.51.31-3.68.83-1.24.56-2.38,1.27-3.28,2.3-.66.76-1.23,1.6-2.23,1.96-.22.08-.39.28-.58.44-.56.49-.81,1.17-1.12,1.81-.22-.51-.57-.93-.98-1.28-.36-.3-.88-.29-1.25,0-.13.1-.21.27-.39.3Z"/>
      <path class="cls-14" d="M79.78,59.54c.18-.03.26-.2.39-.3.37-.28.9-.29,1.25,0,.42.35.77.77.98,1.28,0,.18,0,.37,0,.55,0,.34.14.46.46.29.19.51.61.83.98,1.19,1.84,1.76,3.74,3.45,5.72,5.06.11.2.26.35.43.51.35.33.77.59,1.06.97.06.51.12,1.02.18,1.54-1.79-1.15-3.43-2.5-5.04-3.88-1.19-1.01-2.33-2.07-3.4-3.21-.11-.12-.21-.24-.4-.27-1.76-.33-2.78-1.69-2.63-3.47.01,0,.03-.02.03-.03,0-.02-.01-.05-.02-.07,0-.06,0-.11.01-.17Z"/>
      <path class="cls-2" d="M82.86,61.37c-.32.17-.46.05-.46-.29,0-.18,0-.37,0-.55.32-.64.56-1.32,1.12-1.81.18-.16.36-.36.58-.44,1.01-.37,1.57-1.2,2.23-1.96.89-1.03,2.03-1.75,3.28-2.3,1.17-.52,2.39-.83,3.68-.83.26,0,.46-.16.67-.28.73-.44,1.5-.77,2.38-.72.45.02.84.16,1.08.58-.01.14-.03.28-.04.42-.19.06-.36-.04-.53-.08-.69-.18-1.37-.12-1.94.27-.76.52-1.57.73-2.47.83-2.46.28-4.46,1.41-5.97,3.37-.34.45-.75.79-1.26,1.04-.9.46-1.61,1.1-1.98,2.07-.09.24-.24.46-.36.69Z"/>
      <path class="cls-2" d="M99.36,67.62c.05.46-.2.53-.58.48-.46-.06-.9-.17-1.31-.39-.83-.44-1.22-1.41-.96-2.36.3-1.1,1.08-1.7,2.16-1.67.29,1.3.52,2.62.69,3.94Z"/>
      <path class="cls-14" d="M95.1,73.02c.02-.12.05-.24.07-.36.12-.8.24-.87.9-.39.86.63,1.83,1.03,2.81,1.42.26.11.53.11.81.09-.16.61-.41.79-1.01.7-1.06-.17-1.98-.69-2.92-1.15-.22-.11-.44-.21-.66-.32Z"/>
      <path class="cls-14" d="M92.61,71.58s-.01-.09,0-.14c.05-.28-.01-.67.42-.68.4,0,.55.32.57.65.02.24.18.5,0,.75-.33-.19-.67-.38-1-.58Z"/>
      <path class="cls-3" d="M79.77,59.71s.02.05.02.07c0,0-.02.02-.03.03,0-.03.01-.07.02-.1Z"/>
      <path class="cls-2" d="M89.51,61.05c.02,1.47-1,2.52-2.26,2.53-1.43.02-2.66-1-2.66-2.21,0-1.73.9-2.8,2.64-2.83.71-.01,1.17.5,1.69.91.61.48.6,1.12.59,1.6Z"/>
      <path class="cls-2" d="M93.61,65.34c-1.38,0-2.47-1.17-2.47-2.65,0-1.13,1.15-2.24,2.31-2.22,1.23.01,2.45,1.11,2.46,2.2.03,1.86-1.08,2.65-2.3,2.67Z"/>
      <path class="cls-2" d="M94.62,59.1c-1.5.01-2.31-.77-2.32-2.25-.01-1.4.99-2.44,2.35-2.48,1.39-.04,2.32.99,2.29,2.5-.03,1.3-.95,2.22-2.32,2.23Z"/>
      <path class="cls-2" d="M91.05,69.11c-.3-.39-.71-.65-1.06-.97-.17-.16-.32-.31-.43-.51.26-.82,1.01-1.44,1.79-1.48,1.19-.06,1.9.31,2.28,1.21.35.82.13,1.87-.5,2.5-.23.23-.45.22-.7.08-.46-.27-.92-.55-1.37-.82Z"/>
      <path class="cls-2" d="M99.32,70.96c0,1.06-.54,1.62-1.6,1.62-.9,0-1.64-.7-1.65-1.56,0-.99.72-1.74,1.69-1.74.92,0,1.55.68,1.55,1.68Z"/>
    </g>
  </g>
</svg>