<?xml version="1.0" encoding="UTF-8"?>
<svg id="_圖層_2" data-name="圖層_2" xmlns="http://www.w3.org/2000/svg" viewBox="0 0 140.96 134.48">
  <defs>
    <style>
      .cls-1 {
        fill: #272f35;
      }

      .cls-2 {
        fill: #1c66a6;
      }

      .cls-3 {
        fill: none;
      }

      .cls-4, .cls-5 {
        fill: #595850;
      }

      .cls-5 {
        stroke: #595850;
      }

      .cls-5, .cls-6, .cls-7 {
        stroke-miterlimit: 10;
        stroke-width: .71px;
      }

      .cls-8 {
        fill: #030303;
      }

      .cls-9 {
        fill: #58b8e1;
      }

      .cls-6 {
        stroke: #6c6b86;
      }

      .cls-6, .cls-10 {
        fill: #6c6b86;
      }

      .cls-11 {
        fill: #83cdeb;
      }

      .cls-12 {
        fill: #fefefe;
      }

      .cls-7 {
        fill: #cfedff;
        stroke: #fff;
      }

      .cls-13 {
        fill: #2893c7;
      }
    </style>
  </defs>
  <g id="_魚魟" data-name="魚魟">
    <g>
      <path class="cls-3" d="M110.42,8.3c-.61-.42-1.23-.83-1.85-1.22.62.4,1.24.8,1.85,1.22Z"/>
      <path class="cls-3" d="M31.33,7.3c-.63.4-1.26.82-1.88,1.24.62-.42,1.25-.84,1.88-1.24Z"/>
      <path class="cls-3" d="M26.85,10.42c-.4.3-.8.6-1.19.91.39-.31.79-.61,1.19-.91Z"/>
      <path class="cls-3" d="M29.19,8.72c-.55.38-1.09.76-1.63,1.15.54-.39,1.08-.78,1.63-1.15Z"/>
      <path class="cls-3" d="M112.26,9.59c-.54-.4-1.09-.78-1.64-1.16.55.38,1.1.77,1.64,1.16Z"/>
      <path class="cls-3" d="M114.11,11c-.4-.32-.81-.62-1.21-.93.41.31.81.61,1.21.93Z"/>
      <path class="cls-6" d="M25.66,11.33c.39-.31.79-.61,1.19-.91.24-.18.48-.36.72-.54.54-.39,1.08-.78,1.63-1.15.08-.06.17-.12.25-.18.62-.42,1.25-.84,1.88-1.24h0c-6.59-1.04-7.41-2.58-7.41-2.58,0,0-.03-.07-.02-.18-.15-.02-.24,0-.28.02-2.69,2.38-2.23,6.74-.86,9.2.31-.28.63-.56.96-.84.63-.55,1.28-1.08,1.94-1.6Z"/>
      <path class="cls-6" d="M110.37,6.83s-.69.1-1.8.25c0,0,0,0,0,0,.62.4,1.24.8,1.85,1.22.06.04.13.09.19.13.55.38,1.1.77,1.64,1.16.22.16.43.32.64.48.41.31.81.61,1.21.93.64.5,1.27,1.02,1.89,1.55.5.43.99.87,1.48,1.31,3.14-2.65,1.68-7.85-.45-9.11-.47,1.65-6.66,2.08-6.66,2.08Z"/>
      <path class="cls-4" d="M34.88,6.81c5.28.56,57.54,1.77,65.47.76,2.26-.29,4.79-.73,7.13-1.2,4.24-.84,7.84-1.72,8.07-1.81.5-.19,1.02-.1,1.49.18,0,0,0-.02.01-.02.42-1.67-6.25-2.22-13.76-2.78-7.51-.56-23.35-1.95-32.8-1.95s-20.99.42-28.35,1.11-13.06,1.39-15.84,1.95c-2.08.42-2.37,1.15-2.38,1.49,1.05.11,4.75,1.28,8.71,1.95.75.13,1.51.24,2.26.32Z"/>
      <path class="cls-10" d="M23.92,4.73s.82,1.54,7.41,2.58c.43-.27.85-.55,1.28-.81-3.96-.67-7.66-1.84-8.71-1.95,0,.11.02.18.02.18Z"/>
      <path class="cls-4" d="M23.92,4.73s.82,1.54,7.41,2.58c.43-.27.85-.55,1.28-.81-3.96-.67-7.66-1.84-8.71-1.95,0,.11.02.18.02.18Z"/>
      <path class="cls-10" d="M115.54,4.56c-.23.08-3.83.97-8.07,1.81.37.23.73.47,1.1.7,1.11-.15,1.8-.25,1.8-.25,0,0,6.19-.43,6.66-2.08-.48-.28-.99-.37-1.49-.18Z"/>
      <path class="cls-4" d="M115.54,4.56c-.23.08-3.83.97-8.07,1.81.37.23.73.47,1.1.7,1.11-.15,1.8-.25,1.8-.25,0,0,6.19-.43,6.66-2.08-.48-.28-.99-.37-1.49-.18Z"/>
      <path class="cls-7" d="M117.48,13.86c-.52.44-1.16.81-1.95,1.08-1.19.41-5.36,1.4-10.14,1.87-4.78.48-18.22,2.45-36.14,2.31-20.4-.16-32.57-1.84-40.72-2.31-1.24-.07-4.71-1.67-4.92-1.87-.31-.3-.6-.71-.86-1.18C-.16,34.35.29,63.98.37,66.66c.72,22.8,12.9,44.6,31.5,55.59,1.99,1.17,4.05,2.23,6.17,3.2,2.98.4,6.77.87,10.44,1.22,7.78.74,12.42,1.67,22,1.67s16.35-.93,24.51-1.48c2.3-.16,4.15-.34,5.67-.53,6.65-2.75,12.86-6.44,18.31-11.12,9.1-7.82,15.84-21.72,19.27-33.36,7.06-23.97-2.22-51.18-20.76-68Z"/>
      <path class="cls-6" d="M28.54,16.82c8.15.48,20.32,2.15,40.72,2.31,17.91.14,31.36-1.84,36.14-2.31,4.78-.48,8.95-1.47,10.14-1.87.79-.27,1.43-.64,1.95-1.08-.49-.44-.98-.88-1.48-1.31-.62-.53-1.26-1.05-1.89-1.55-.4-.32-.81-.62-1.21-.93-.21-.16-.43-.33-.64-.48-.54-.4-1.09-.78-1.64-1.16-.06-.04-.13-.09-.19-.13-.61-.42-1.23-.83-1.85-1.22,0,0,0,0,0,0-2.4.32-6.77.89-10.57,1.27-5.56.56-15.98.42-26.13.56-10.15.14-18.76-.14-32.66-.83-3.28-.16-5.85-.44-7.88-.76,0,0,0,0,0,0-.63.4-1.26.82-1.88,1.24-.09.06-.17.12-.25.18-.55.38-1.09.76-1.63,1.15-.24.18-.48.36-.72.54-.4.3-.8.6-1.19.91-.65.52-1.3,1.05-1.94,1.6-.32.28-.64.56-.96.84.26.47.55.87.86,1.18.21.2,3.68,1.8,4.92,1.87Z"/>
      <path class="cls-10" d="M27.56,9.87c-.24.18-.48.36-.72.54.24-.18.48-.36.72-.54Z"/>
      <path class="cls-10" d="M27.56,9.87c-.24.18-.48.36-.72.54.24-.18.48-.36.72-.54Z"/>
      <polygon class="cls-10" points="31.33 7.3 31.33 7.3 31.33 7.3 31.33 7.3"/>
      <polygon class="cls-10" points="31.33 7.3 31.33 7.3 31.33 7.3 31.33 7.3"/>
      <path class="cls-10" d="M25.66,11.33c-.66.52-1.3,1.05-1.94,1.6.63-.55,1.28-1.08,1.94-1.6Z"/>
      <path class="cls-10" d="M25.66,11.33c-.66.52-1.3,1.05-1.94,1.6.63-.55,1.28-1.08,1.94-1.6Z"/>
      <path class="cls-10" d="M29.45,8.54c-.09.06-.17.12-.25.18.08-.06.17-.12.25-.18Z"/>
      <path class="cls-10" d="M29.45,8.54c-.09.06-.17.12-.25.18.08-.06.17-.12.25-.18Z"/>
      <path class="cls-10" d="M116,12.55c-.62-.53-1.25-1.05-1.89-1.55.64.5,1.27,1.02,1.89,1.55Z"/>
      <path class="cls-10" d="M116,12.55c-.62-.53-1.25-1.05-1.89-1.55.64.5,1.27,1.02,1.89,1.55Z"/>
      <path class="cls-10" d="M112.9,10.07c-.21-.16-.43-.33-.64-.48.22.16.43.32.64.48Z"/>
      <path class="cls-10" d="M112.9,10.07c-.21-.16-.43-.33-.64-.48.22.16.43.32.64.48Z"/>
      <path class="cls-10" d="M110.61,8.43c-.06-.04-.13-.09-.19-.13.06.04.13.09.19.13Z"/>
      <path class="cls-10" d="M110.61,8.43c-.06-.04-.13-.09-.19-.13.06.04.13.09.19.13Z"/>
      <polygon class="cls-10" points="108.57 7.07 108.57 7.07 108.57 7.07 108.57 7.07"/>
      <polygon class="cls-10" points="108.57 7.07 108.57 7.07 108.57 7.07 108.57 7.07"/>
      <path class="cls-4" d="M100.34,7.57c-7.92,1.01-60.18-.2-65.47-.76-.75-.08-1.51-.19-2.26-.32-.43.26-.86.54-1.28.81,2.03.32,4.61.59,7.88.76,13.9.69,22.52.97,32.66.83,10.15-.14,20.57,0,26.13-.56,3.8-.38,8.17-.95,10.57-1.27-.37-.23-.73-.48-1.1-.7-2.34.46-4.87.91-7.13,1.2Z"/>
      <path class="cls-4" d="M100.34,7.57c-7.92,1.01-60.18-.2-65.47-.76-.75-.08-1.51-.19-2.26-.32-.43.26-.86.54-1.28.81,2.03.32,4.61.59,7.88.76,13.9.69,22.52.97,32.66.83,10.15-.14,20.57,0,26.13-.56,3.8-.38,8.17-.95,10.57-1.27-.37-.23-.73-.48-1.1-.7-2.34.46-4.87.91-7.13,1.2Z"/>
      <path class="cls-10" d="M31.33,7.3h0c.43-.27.85-.55,1.28-.81-.43.26-.86.54-1.28.81Z"/>
      <path class="cls-4" d="M31.33,7.3h0c.43-.27.85-.55,1.28-.81-.43.26-.86.54-1.28.81Z"/>
      <path class="cls-10" d="M31.33,7.3h0c.43-.27.85-.55,1.28-.81-.43.26-.86.54-1.28.81Z"/>
      <path class="cls-10" d="M107.47,6.37c.37.23.73.47,1.1.7h0c-.37-.23-.73-.48-1.1-.7Z"/>
      <path class="cls-4" d="M40.34,123.03c-3.35-.45-5.69-.81-5.69-.81,0,0-2.04,2.59-2.04,4.82s2.04,4.08,2.04,4.08c0,0,.19.74,12.23,1.85,12.05,1.11,20.01,1.3,27.43,1.48,7.41.19,13.34-.37,24.46-1.3,11.12-.93,14.82-2.78,14.08-6.12-.74-3.34-.74-4.08-2.78-4.08-1.46,0-3.23.48-7.11.95-19.84,8.2-43.59,7.83-62.62-.88Z"/>
      <path class="cls-5" d="M72.25,126.17c-9.59,0-14.22-.93-22-1.67-3.67-.35-7.45-.82-10.44-1.22,13.82,9.3,34.46,10.02,62.62.88-1.53.19-3.37.37-5.67.53-8.15.56-14.92,1.48-24.51,1.48Z"/>
    </g>
    <g>
      <path class="cls-13" d="M56.75,63.18c.42,2.1.58,4.22.43,6.36-.03.43,0,.87-.12,1.29-1.08-.19-2.12-.55-3.21-.68.02-.14.04-.29.06-.43.12-.95.05-1.86-.56-2.66-.41-.53-.94-.78-1.6-.66-.66.11-1.1.51-1.36,1.14-.25.63-.3,1.28-.3,1.94-.18-.01-.36,0-.53-.04-2.1-.49-4.2-.99-6.3-1.49-1.7-.4-3.39-.8-5.09-1.2.38-.65.59-1.34.67-2.09.13-1.15-.38-1.98-1.45-2.34.63-1.22,1.38-2.36,2.26-3.42.37.17.65.46.95.72.45.41.79.45,1.15.15.32-.27.31-.69-.06-1.15-.3-.37-.65-.7-.97-1.05,1.63-1.83,3.44-3.42,5.8-4.25.15-.05.31-.09.46-.13-.23,1.09-.67,2.13-.79,3.26-.03.33-.21.76.03.96.31.25.73.04,1.09-.12.03-.01.06-.03.09-.04,1.65-.83,3.04-1.95,4.15-3.43,2.09,1.41,3.34,3.43,4.18,5.76.24.67.51,1.33.69,2.03.04.17.11.33.07.51-.13.04-.21-.06-.3-.12-1.62-1.1-3.4-1.36-5.29-.91-.12.03-.24.09-.36.14-.64.24-.86.59-.71,1.11.12.41.48.56,1.12.45,1.53-.25,3.01-.06,4.41.62.72.34.84.33,1.39-.21Z"/>
      <path class="cls-11" d="M38.49,90.24s-.03,0-.05,0c-1.56-.28-2.46-1.28-3.08-2.67-1.05-2.35-1.62-4.81-1.79-7.37.4,0,.8.01,1.2,0,1.83-.07,3.47-.54,4.5-2.23.05.07.12.09.2.11,1.9.45,3.79.9,5.69,1.35,1.8.42,3.61.84,5.41,1.26-.03.25-.29.52,0,.75.24.18.52.17.78.04.2-.1.38-.24.56-.36.78-.55,1.23-1.38,1.84-2.08-.01.62.18,1.21.31,1.81-.38,1-.98,1.87-1.55,2.77-.64,1.02-1.34,2-2.12,2.92-1.19,1.41-2.47,2.73-3.95,3.86-1.16.88-2.4,1.05-3.78.79-.42-.08-.85-.19-1.29-.16.38-1.23.18-2.36-.53-3.42-.22-.32-.53-.53-.92-.52-.36.01-.43.35-.54.61-.38.83-.62,1.71-.91,2.57Z"/>
      <path class="cls-9" d="M50.57,80.67c-1.8-.42-3.61-.83-5.41-1.26-1.9-.45-3.79-.9-5.69-1.35-.08-.02-.15-.04-.2-.11.14-.44.46-.73.8-1,.41-.34.81-.69,1.11-1.14.16-.24.31-.28.6-.21,1.25.32,2.52.48,3.81.16.2-.05.34.03.49.13.69.45,1.33.96,1.9,1.55.3.31.63.48,1.02.21.39-.27.34-.65.15-1.03-.59-1.16-1.36-2.16-2.36-3.01-2.84-2.44-7.45-2.93-10.74-.8-.41.26-.6.65-.41,1.01.19.36.52.4.91.31.64-.14,1.3-.2,1.94-.31.4-.07.55.24.71.47.17.24-.18.28-.29.4-.34.38-.75.71-1.07,1.11-.31.38-.62.41-1.01.2-.75-.4-1.49-.81-2.19-1.31,0-.67,0-1.33-.02-2-.01-.6.06-1.18.14-1.77.06-.45.24-.93-.26-1.27-.08-.06-.03-.18,0-.27.26-.95.53-1.91.92-2.82.35.65.8,1.12,1.62.98.51-.09.83-.44,1.15-.8,1.7.4,3.39.8,5.09,1.2,2.1.5,4.2,1,6.3,1.49.17.04.35.03.53.04-.03.5.18.96.42,1.35.75,1.18,1.93,1.19,2.72.4.3-.31.44-.7.62-1.07,1.09.14,2.13.49,3.21.68,0,.22,0,.44,0,.65-.18.61-.23,1.24-.35,1.86-.17.84-.36,1.68-.54,2.52-.2.25-.26.56-.29.87-.27-.12-.54-.23-.8-.35.09-.42.27-.82.23-1.27-.02-.26-.15-.43-.39-.49-.25-.06-.44.06-.55.28-.09.17-.16.35-.23.53-.84,1.99-2.02,3.74-3.55,5.26Z"/>
      <path class="cls-2" d="M56.16,75.85c.18-.84.37-1.68.54-2.52.13-.62.17-1.25.35-1.86.59-.08,1.17-.19,1.77-.24.28-.03.42-.14.54-.39.34-.74.72-1.47,1.05-2.22,1.22-2.71,3.12-4.93,5.12-7.08.13-.14.28-.27.43-.39.56-.45.8-.41,1.06.28.57,1.47.64,3.01.51,4.56-.18,2.2-1.17,4.05-2.47,5.77-.27.36-.26.47.18.62.84.27,1.64.66,2.39,1.13,1.97,1.23,2.74,3.07,2.65,5.32-.02.64-.26.79-.89.58-1.13-.38-2.16-.99-3.24-1.49-2.09-.96-4.27-1.69-6.43-2.47-.15-.05-.3-.06-.47-.04-1.03.15-2.07.29-3.1.43Z"/>
      <path class="cls-2" d="M34.64,74.69c.69.5,1.44.91,2.19,1.31.39.21.71.18,1.01-.2.32-.4.73-.73,1.07-1.11.11-.12.46-.16.29-.4-.16-.23-.31-.54-.71-.47-.65.12-1.3.17-1.94.31-.4.09-.72.05-.91-.31-.19-.36,0-.74.41-1.01,3.29-2.14,7.9-1.64,10.74.8,1,.86,1.76,1.86,2.36,3.01.2.38.24.76-.15,1.03-.39.27-.71.1-1.02-.21-.57-.59-1.21-1.1-1.9-1.55-.15-.1-.29-.18-.49-.13-1.28.32-2.55.16-3.81-.16-.29-.07-.44-.03-.6.21-.3.44-.69.8-1.11,1.14-.33.28-.66.56-.8,1-1.03,1.7-2.67,2.16-4.5,2.23-.4.02-.8,0-1.2,0-.8-.16-1.61-.28-2.35-.66-1.29-.65-2.36-1.51-2.72-2.99-.33-1.37.64-3.21,2.48-3.15,1.01.03,1.93.29,2.79.78.29.16.58.35.86.52Z"/>
      <path class="cls-2" d="M55.07,76.36c.27.12.54.23.8.35,3.63,2.13,6.22,5.18,7.92,9.01.35.78.28.65-.42.64-1.75-.03-3.33-.63-4.84-1.46-1.82-1-3.39-2.27-4.47-4.08-.14-.6-.32-1.19-.31-1.81.49-.86.96-1.73,1.31-2.66Z"/>
      <path class="cls-2" d="M51.54,53.81c-1.11,1.48-2.5,2.6-4.15,3.43-.03.01-.06.03-.09.04-.36.15-.78.37-1.09.12-.24-.2-.06-.62-.03-.96.12-1.12.56-2.16.79-3.26.43-.95.84-1.9,1.28-2.85.52-1.11,1.09-2.18,1.74-3.22.04-.07.09-.14.13-.2.36-.53.77-.77,1.19-.64.52.17.69.61.73,1.09.13,1.9.07,3.79-.24,5.67-.04.26-.17.51-.26.77Z"/>
      <path class="cls-2" d="M38.49,90.24c.3-.86.54-1.74.91-2.57.11-.25.18-.59.54-.61.4-.01.71.2.92.52.71,1.06.91,2.19.53,3.42-.66,1.38-1.63,2.52-2.74,3.56-.12.11-.24.21-.37.31-.14.1-.29.27-.47.19-.2-.09-.11-.32-.1-.47.05-1.4.41-2.75.73-4.11.02-.08.03-.16.04-.23Z"/>
      <path class="cls-1" d="M38.17,66.74c-.31.36-.64.72-1.15.8-.82.14-1.27-.33-1.62-.98-.25-.98-.17-1.93.25-2.85.34-.76.88-1.28,1.74-1.4,1.07.35,1.58,1.19,1.45,2.34-.08.74-.29,1.44-.67,2.09Z"/>
      <path class="cls-1" d="M56.75,63.18c-.55.54-.68.55-1.39.21-1.4-.67-2.88-.86-4.41-.62-.64.1-1-.04-1.12-.45-.15-.52.07-.86.71-1.11.12-.05.24-.11.36-.14,1.89-.45,3.66-.19,5.29.91.09.06.17.16.3.12,0,0,0,0,0,0-.02.07.02.1.07.12.24.28.26.6.2.94Z"/>
      <path class="cls-1" d="M40.71,57.56c.33.35.67.68.97,1.05.38.46.38.88.06,1.15-.35.3-.69.26-1.15-.15-.3-.27-.58-.55-.95-.72-.84-.64-1.81-.94-2.83-1.1-.54-.09-.81-.35-.78-.79.03-.4.32-.65.85-.66,1.22-.03,2.35.28,3.37.95.15.1.3.18.45.27Z"/>
      <path class="cls-13" d="M56.55,62.24c-.05-.02-.09-.05-.07-.12.09,0,.08.06.07.12Z"/>
      <path class="cls-1" d="M53.85,70.14c-.17.38-.31.77-.62,1.07-.79.79-1.97.78-2.72-.4-.24-.38-.45-.85-.42-1.35,0-.66.04-1.31.3-1.94.26-.63.7-1.03,1.36-1.14.66-.11,1.2.13,1.6.66.61.8.68,1.71.56,2.66-.02.14-.04.29-.06.43Z"/>
      <path class="cls-12" d="M55.07,76.36c-.35.93-.83,1.8-1.31,2.66-.61.7-1.06,1.53-1.84,2.08-.18.13-.36.27-.56.36-.26.12-.54.14-.78-.04-.3-.23-.04-.5,0-.75,1.53-1.52,2.71-3.27,3.55-5.26.07-.18.15-.36.23-.53.11-.22.3-.34.55-.28.24.06.37.23.39.49.04.45-.14.85-.23,1.27Z"/>
    </g>
    <g>
      <path class="cls-8" d="M104.84,86.71c-1.44,0-2.87-.1-4.3-.27-.24-.03-.36,0-.48.21-2.21,4.09-5.9,6.16-10.15,7.48-1.62.5-3.27.82-4.96.99-.7.07-1.22-.21-1.47-.8-.26-.6-.09-1.24.48-1.66,2.04-1.5,3.26-3.57,4.11-5.88.37-1,.61-2.05.38-3.14-.12-.54-.39-.91-.88-1.18-3.54-1.94-6.57-4.47-8.79-7.89-2.3-3.55-3.26-7.42-2.9-11.65.28-3.25.98-6.38,2.4-9.32,2.49-5.15,6.53-8.62,11.79-10.73,2.74-1.1,5.6-1.75,8.52-2.11,3.56-.45,7.13-.49,10.71-.2,4.96.41,9.71,1.54,14,4.19,5.35,3.32,8.49,8.16,9.75,14.28.38,1.86.57,3.75.55,5.65-.06,5.75-2.33,10.52-6.53,14.39-3.93,3.62-8.67,5.64-13.84,6.76-2.76.6-5.56.83-8.39.88ZM88.68,91.69c.42-.13.7-.21.98-.31,3.72-1.25,6.87-3.18,8.46-7,.22-.53.69-.82,1.29-.77.68.05,1.35.16,2.03.22,3.34.27,6.66.17,9.97-.42,4.29-.76,8.3-2.2,11.84-4.77,3.49-2.53,6-5.78,7.07-10.02.82-3.26.58-6.51-.17-9.74-1.22-5.27-4.12-9.33-8.82-12.06-3.48-2.02-7.29-2.98-11.25-3.4-3.38-.36-6.77-.36-10.16-.02-3.22.32-6.35.97-9.33,2.25-4.46,1.91-7.89,4.94-9.97,9.39-1.21,2.6-1.77,5.34-2,8.19-.29,3.6.5,6.9,2.48,9.91,1.98,3.02,4.67,5.23,7.81,6.94,1.13.62,1.84,1.54,2.17,2.78.37,1.4.18,2.77-.19,4.13-.45,1.64-1.23,3.14-2.22,4.69Z"/>
      <path class="cls-12" d="M131.51,58.77c-1.28-5.54-4.34-9.83-9.29-12.7-3.66-2.13-7.68-3.13-11.84-3.58-3.56-.38-7.13-.38-10.7-.03-3.39.33-6.69,1.03-9.82,2.37-4.7,2.01-8.31,5.2-10.5,9.89-1.28,2.73-1.86,5.63-2.11,8.62-.31,3.79.53,7.26,2.61,10.44,2.08,3.17,4.92,5.5,8.22,7.31,1.19.65,1.94,1.62,2.29,2.93.39,1.48.19,2.92-.2,4.35-.48,1.73-1.29,3.3-2.33,4.93.45-.14.74-.23,1.03-.32,3.91-1.32,7.23-3.34,8.91-7.37.23-.56.73-.86,1.36-.81.71.06,1.42.17,2.14.23,3.52.28,7.02.17,10.5-.44,4.51-.8,8.73-2.32,12.47-5.02,3.68-2.67,6.32-6.08,7.45-10.55.86-3.43.61-6.86-.17-10.25ZM120.79,56.86c-.6.98-1.44,1.73-2.28,2.47-1.43,1.25-2.98,2.35-4.59,3.37-.28.18-.36.4-.36.72,0,3.62-1.63,6.39-4.76,8.09-3.22,1.75-6.51,1.63-9.65-.37-.23-.14-.38-.17-.62-.07-2.22.92-4.45,1.81-6.81,2.33-.8.18-1.61.24-2.42.19-1.09-.06-1.52-.9-.95-1.83.71-1.16,1.7-2.05,2.72-2.92,1.39-1.19,2.88-2.22,4.38-3.26.22-.15.27-.31.24-.58-.31-2.58.39-4.87,2.06-6.85,1.53-1.82,3.55-2.76,5.85-3.17.4-.07.81,0,1.22,0,2.07-.09,3.88.63,5.46,1.92.4.33.71.27,1.1.1,1.85-.76,3.72-1.43,5.68-1.84.98-.2,1.96-.45,2.98-.2,1.09.27,1.35.94.76,1.9Z"/>
    </g>
    <rect class="cls-12" x="86.21" y="52.9" width="35.08" height="25.2" rx="5.93" ry="5.93"/>
  </g>
</svg>