<svg xmlns="http://www.w3.org/2000/svg" viewBox="0 0 140.96 134.48"><defs><style>.cls-1{fill:none;}.cls-2,.cls-4{fill:#6c6b86;}.cls-2{stroke:#6c6b86;}.cls-2,.cls-5,.cls-6{stroke-miterlimit:10;stroke-width:0.71px;}.cls-3,.cls-6{fill:#595850;}.cls-5{fill:#cfedff;stroke:#fff;}.cls-6{stroke:#595850;}.cls-7{fill:#b0d9ec;}.cls-8{fill:#1c77d2;}</style></defs><g id="圖層_2" data-name="圖層 2"><g id="魚魟"><g id="可使用"><path class="cls-1" d="M110.42,8.3c-.61-.42-1.23-.83-1.85-1.23C109.19,7.47,109.81,7.88,110.42,8.3Z"/><path class="cls-1" d="M31.33,7.3c-.63.41-1.26.82-1.88,1.24C30.07,8.12,30.7,7.71,31.33,7.3Z"/><path class="cls-1" d="M26.85,10.42c-.4.3-.8.59-1.19.91C26.05,11,26.45,10.72,26.85,10.42Z"/><path class="cls-1" d="M29.19,8.72,27.56,9.87Z"/><path class="cls-1" d="M112.26,9.59c-.55-.4-1.1-.78-1.65-1.16C111.16,8.81,111.71,9.19,112.26,9.59Z"/><path class="cls-1" d="M114.11,11c-.4-.32-.81-.62-1.21-.93C113.3,10.38,113.71,10.68,114.11,11Z"/><path class="cls-2" d="M25.66,11.33c.39-.32.79-.61,1.19-.91l.71-.55,1.63-1.15.26-.18c.62-.42,1.25-.83,1.88-1.24h0c-6.59-1-7.41-2.57-7.41-2.57a.76.76,0,0,1,0-.19c-.15,0-.24,0-.28,0-2.68,2.38-2.23,6.74-.86,9.21l1-.85C24.35,12.38,25,11.84,25.66,11.33Z"/><path class="cls-2" d="M110.37,6.83l-1.8.24h0c.62.4,1.24.81,1.85,1.23l.19.13c.55.38,1.1.76,1.65,1.16l.64.48c.4.31.81.61,1.21.93.64.5,1.27,1,1.89,1.55s1,.87,1.48,1.31c3.14-2.65,1.68-7.85-.45-9.11C116.56,6.4,110.37,6.83,110.37,6.83Z"/><path class="cls-3" d="M34.88,6.81c5.28.55,57.54,1.77,65.46.76,2.26-.29,4.79-.74,7.13-1.2,4.24-.84,7.84-1.72,8.07-1.81a1.69,1.69,0,0,1,1.49.19v0c.42-1.67-6.25-2.23-13.76-2.78S79.93,0,70.48,0,49.5.42,42.13,1.11s-13.06,1.39-15.84,2c-2.09.41-2.37,1.14-2.39,1.48,1.05.11,4.76,1.29,8.72,2C33.37,6.62,34.12,6.73,34.88,6.81Z"/><path class="cls-4" d="M23.92,4.73s.82,1.54,7.41,2.57c.43-.27.85-.55,1.29-.81-4-.66-7.67-1.84-8.72-1.95A.76.76,0,0,0,23.92,4.73Z"/><path class="cls-3" d="M23.92,4.73s.82,1.54,7.41,2.57c.43-.27.85-.55,1.29-.81-4-.66-7.67-1.84-8.72-1.95A.76.76,0,0,0,23.92,4.73Z"/><path class="cls-4" d="M115.54,4.56c-.23.09-3.83,1-8.07,1.81l1.1.7,1.8-.24s6.19-.43,6.66-2.08A1.69,1.69,0,0,0,115.54,4.56Z"/><path class="cls-3" d="M115.54,4.56c-.23.09-3.83,1-8.07,1.81l1.1.7,1.8-.24s6.19-.43,6.66-2.08A1.69,1.69,0,0,0,115.54,4.56Z"/><path class="cls-5" d="M117.48,13.86a6,6,0,0,1-1.94,1.08,56.64,56.64,0,0,1-10.14,1.88,280.44,280.44,0,0,1-36.14,2.31c-20.4-.16-32.57-1.84-40.72-2.31a19,19,0,0,1-4.92-1.88,5.22,5.22,0,0,1-.86-1.17C-.16,34.35.29,64,.37,66.66c.72,22.8,12.9,44.6,31.5,55.6a67.88,67.88,0,0,0,6.17,3.2c3,.4,6.77.87,10.44,1.22,7.78.74,12.41,1.67,22,1.67s16.36-.93,24.51-1.48c2.3-.16,4.15-.35,5.67-.53A67.77,67.77,0,0,0,119,115.21c9.1-7.82,15.84-21.72,19.27-33.35C145.31,57.89,136,30.67,117.48,13.86Z"/><path class="cls-2" d="M28.54,16.82c8.15.47,20.32,2.15,40.72,2.31a280.44,280.44,0,0,0,36.14-2.31,56.64,56.64,0,0,0,10.14-1.88,6,6,0,0,0,1.94-1.08c-.48-.44-1-.88-1.48-1.31s-1.25-1.05-1.89-1.55c-.4-.32-.81-.62-1.21-.93l-.64-.48c-.55-.4-1.1-.78-1.65-1.16l-.19-.13c-.61-.42-1.23-.83-1.85-1.23h0C106.18,7.39,101.8,8,98,8.34c-5.56.55-16,.42-26.13.55s-18.76-.13-32.66-.83a74.12,74.12,0,0,1-7.88-.76h0c-.63.41-1.26.82-1.88,1.24l-.26.18L27.56,9.87l-.71.55c-.4.3-.8.6-1.19.91-.66.52-1.31,1.05-1.94,1.59l-1,.85a5.22,5.22,0,0,0,.86,1.17A19,19,0,0,0,28.54,16.82Z"/><path class="cls-4" d="M27.56,9.87l-.71.55Z"/><path class="cls-4" d="M27.56,9.87l-.71.55Z"/><polygon class="cls-4" points="31.33 7.3 31.33 7.3 31.33 7.3 31.33 7.3"/><polygon class="cls-4" points="31.33 7.3 31.33 7.3 31.33 7.3 31.33 7.3"/><path class="cls-4" d="M25.66,11.33c-.66.51-1.31,1.05-1.94,1.59C24.35,12.38,25,11.85,25.66,11.33Z"/><path class="cls-4" d="M25.66,11.33c-.66.51-1.31,1.05-1.94,1.59C24.35,12.38,25,11.85,25.66,11.33Z"/><path class="cls-4" d="M29.45,8.54l-.26.18Z"/><path class="cls-4" d="M29.45,8.54l-.26.18Z"/><path class="cls-4" d="M116,12.55c-.62-.53-1.25-1.05-1.89-1.55C114.75,11.5,115.38,12,116,12.55Z"/><path class="cls-4" d="M116,12.55c-.62-.53-1.25-1.05-1.89-1.55C114.75,11.5,115.38,12,116,12.55Z"/><path class="cls-4" d="M112.9,10.07l-.64-.48Z"/><path class="cls-4" d="M112.9,10.07l-.64-.48Z"/><path class="cls-4" d="M110.61,8.43l-.19-.13Z"/><path class="cls-4" d="M110.61,8.43l-.19-.13Z"/><polygon class="cls-4" points="108.57 7.07 108.57 7.07 108.57 7.07 108.57 7.07"/><polygon class="cls-4" points="108.57 7.07 108.57 7.07 108.57 7.07 108.57 7.07"/><path class="cls-3" d="M100.34,7.57c-7.92,1-60.18-.21-65.46-.76-.76-.08-1.51-.19-2.26-.32-.44.26-.86.54-1.29.81a74.12,74.12,0,0,0,7.88.76c13.9.7,22.52,1,32.66.83s20.57,0,26.13-.55c3.8-.38,8.18-1,10.57-1.27l-1.1-.7C105.13,6.83,102.6,7.28,100.34,7.57Z"/><path class="cls-3" d="M100.34,7.57c-7.92,1-60.18-.21-65.46-.76-.76-.08-1.51-.19-2.26-.32-.44.26-.86.54-1.29.81a74.12,74.12,0,0,0,7.88.76c13.9.7,22.52,1,32.66.83s20.57,0,26.13-.55c3.8-.38,8.18-1,10.57-1.27l-1.1-.7C105.13,6.83,102.6,7.28,100.34,7.57Z"/><path class="cls-4" d="M31.33,7.3h0c.43-.27.85-.55,1.29-.81C32.18,6.75,31.76,7,31.33,7.3Z"/><path class="cls-3" d="M31.33,7.3h0c.43-.27.85-.55,1.29-.81C32.18,6.75,31.76,7,31.33,7.3Z"/><path class="cls-4" d="M31.33,7.3h0c.43-.27.85-.55,1.29-.81C32.18,6.75,31.76,7,31.33,7.3Z"/><path class="cls-4" d="M107.47,6.37l1.1.7h0Z"/><path class="cls-3" d="M40.34,123c-3.35-.45-5.69-.81-5.69-.81s-2,2.59-2,4.81a6.45,6.45,0,0,0,2,4.08s.19.74,12.23,1.85,20,1.3,27.43,1.49,13.34-.38,24.46-1.3,14.83-2.78,14.08-6.12-.74-4.07-2.77-4.07c-1.47,0-3.23.47-7.12,1C83.12,132.11,59.37,131.74,40.34,123Z"/><path class="cls-6" d="M72.25,126.17c-9.59,0-14.22-.93-22-1.67-3.67-.35-7.45-.82-10.44-1.23,13.82,9.3,34.46,10,62.63.88-1.53.19-3.38.38-5.68.53C88.61,125.24,81.84,126.17,72.25,126.17Z"/><path class="cls-7" d="M94.2,83.75a8.87,8.87,0,0,1-1.68-1.17,20.27,20.27,0,0,1-2.13-1.8c-.11-.11-.28-.19-.27-.39s.42-.5.63-.74.19-.31,0-.5c-.73-.71-1.42-1.46-2.17-2.16a1.31,1.31,0,0,0-2,.09,7.6,7.6,0,0,0-.62.76c-.84,1.08-.84,1.08.27,1.9a26.43,26.43,0,0,1-3.42,4,.38.38,0,0,1-.16,0c-.29-.1-.45-.36-.65-.57s-.41-.25-.66,0c-.91.9-1.88,1.74-2.86,2.56a1.4,1.4,0,0,0,0,2.2c.17.15.35.26.51.41s.36.17.55,0,.36-.56.67-.72A4.74,4.74,0,0,1,82,89.22c.23.36,0,.72-.49.87a4.89,4.89,0,0,1-1.82.24,4.25,4.25,0,0,1-.06-.87c.05-.49-.19-.56-.61-.55a17.88,17.88,0,0,1-3.43-.15c-1.34-.2-1.43-.13-1.38,1.26a13.15,13.15,0,0,1-1.55-.23,11.39,11.39,0,0,0-3.95,0v-.54c0-.74-.07-.75-.78-.77a27.94,27.94,0,0,1-3.88-.1c-.5-.08-.81,0-.74.64a2.4,2.4,0,0,1-.07.65,20.59,20.59,0,0,1-5.33-1,5,5,0,0,1,.2-.85c.15-.37,0-.5-.34-.61a23.36,23.36,0,0,1-3.3-1.31c-.32-.16-.68-.47-1-.42s-.38.57-.59.86l-.13.17a14.16,14.16,0,0,1-3.3-2.17c-.36-.3-.85-.5-1-1a4.93,4.93,0,0,1,.42-.49c.33-.29.42-.51,0-.86a13.14,13.14,0,0,1-1.77-2c-.25-.32-.23-.48.13-.71.65-.4,1.27-.85,1.88-1.31s.57-.8,0-1.3c-.1-.09-.2-.16-.3-.24A21,21,0,0,0,44.4,74a7.23,7.23,0,0,1,1.07-2.76,2.72,2.72,0,0,1,.74-1.12,1.59,1.59,0,0,1,.66.37c.36.29.56.23.81-.15A17.53,17.53,0,0,1,50,67.53c.64-.64.64-.65.06-1.36a2.49,2.49,0,0,1-.2-.32,5,5,0,0,1,1.41-1.26,16.52,16.52,0,0,1,3-1.84c.13.28.28.56.4.84s.26.41.61.23a15.8,15.8,0,0,1,3.08-1.14c.42-.11,1-.09,1.23-.35s-.1-.86-.05-1.31c1,0,1.44-.69,1.88-1.46a14.24,14.24,0,0,1,1.64-2.31c.16.28.48.4.68.63s.43.27.69,0A24.71,24.71,0,0,1,67,55.42a.67.67,0,0,1,.74-.17c1.08.44,1.09.42,1.51-.7l0-.16A19.75,19.75,0,0,1,74,57.17c-.19.27-.37.54-.58.79s-.2.38.06.57a25.07,25.07,0,0,1,3.28,3c.25.27.43.32.7,0a1.63,1.63,0,0,1,.67-.55,6.47,6.47,0,0,1,1.46,1.58,19.85,19.85,0,0,1,1.89,2.58l-.9.63c-.12.09-.23.17-.12.36.77,1.24,1.48,2.52,2.29,3.73.58.86.64.82,1.47.18l.28-.16,2.22,2.47L88,73.88c-.24.24-.47.5-.73.73s-.16.37.07.52a1.47,1.47,0,0,0,1.83-.32l2.57-3c.28-.33.77-.63.82-1s-.59-.63-.82-1a24.14,24.14,0,0,1,3.91-3.65c.3.19.16.47.12.69a10.69,10.69,0,0,1-.34,1.38c-.13.38,0,.52.34.62a1.72,1.72,0,0,1,.8.29A9.31,9.31,0,0,1,94.92,73c-.22.29-.37.68-.78.79a2,2,0,0,1-.73-.56c-.24-.21-.36-.19-.57,0a15.62,15.62,0,0,1-1.69,1.56,1.4,1.4,0,0,0-.12,2c.4.43.81.84,1.21,1.27.52.58.52.58,1.13.07.15-.13.32-.24.48-.36a7.9,7.9,0,0,1,1.86,2.87,5.69,5.69,0,0,1,.57,1.82C95.51,82.79,94.6,82.85,94.2,83.75Zm-21.62.11a11.05,11.05,0,0,0,3.47-.54c.39-.13.5-.24.16-.6a20.77,20.77,0,0,0-6.86-4.91,13.43,13.43,0,0,0-5.78-1.31c-.18,0-.47-.08-.47.22a7.15,7.15,0,0,0,.2,2.48,5.37,5.37,0,0,0,2.89,3.13A15.19,15.19,0,0,0,72.58,83.86ZM53.51,72.53a1.6,1.6,0,0,0,1.65,1.77,1.76,1.76,0,1,0,.21-3.52A1.8,1.8,0,0,0,53.51,72.53Z"/><path class="cls-8" d="M44.4,74a21,21,0,0,1,4.46,2.38c.1.08.2.15.3.24.55.5.56.85,0,1.3s-1.23.91-1.88,1.31c-.36.23-.38.39-.13.71a13.14,13.14,0,0,0,1.77,2c.4.35.31.57,0,.86a4.93,4.93,0,0,0-.42.49c-.32.08-.45-.2-.61-.37a16.42,16.42,0,0,1-2-2.39c-.16-.23-.31-.39-.62-.26a.58.58,0,0,1-.79-.31.7.7,0,0,1,.18-.89A9.9,9.9,0,0,1,46.32,78c.42-.25.88-.44,1.36-.68-.85-.35-1.67-.67-2.49-1-.55-.24-1.09-.51-1.62-.79S42.82,75,43,74.4s.64-.52,1.09-.44Z"/><path class="cls-8" d="M69.28,54.39l0,.16c-.42,1.12-.43,1.14-1.51.7a.67.67,0,0,0-.74.17,24.71,24.71,0,0,0-2.57,2.44c-.26.29-.45.31-.69,0s-.52-.35-.68-.63a26.67,26.67,0,0,1,3.76-3.52.48.48,0,0,1,.54-.11A12.22,12.22,0,0,1,69.28,54.39Z"/><path class="cls-8" d="M86.28,79.74c-1.11-.82-1.11-.82-.27-1.9a7.6,7.6,0,0,1,.62-.76,1.31,1.31,0,0,1,2-.09c.75.7,1.44,1.45,2.17,2.16.19.19.17.32,0,.5s-.51.42-.63.74a9.9,9.9,0,0,1-2-1.81c-.52-.51-.49-.52-.93,0A7.9,7.9,0,0,1,86.28,79.74Z"/><path class="cls-8" d="M80.26,87.6c-.31.16-.44.48-.67.72s-.34.23-.55,0-.34-.26-.51-.41a1.4,1.4,0,0,1,0-2.2c1-.82,2-1.66,2.86-2.56.25-.25.42-.26.66,0s.36.47.65.57c0,.19-.13.29-.25.4-.86.77-1.69,1.57-2.57,2.31-.38.31-.39.5,0,.75C80.05,87.3,80.22,87.39,80.26,87.6Z"/><path class="cls-8" d="M91.77,69.81c.23.38.87.59.82,1s-.54.66-.82,1l-2.57,3a1.47,1.47,0,0,1-1.83.32c-.23-.15-.3-.3-.07-.52s.49-.49.73-.73c.9-.88,1.62-1.9,2.47-2.82A8.34,8.34,0,0,1,91.77,69.81Z"/><path class="cls-8" d="M93.85,77.82c-.16.12-.33.23-.48.36-.61.51-.61.51-1.13-.07-.4-.43-.81-.84-1.21-1.27a1.4,1.4,0,0,1,.12-2,15.62,15.62,0,0,0,1.69-1.56c.21-.23.33-.25.57,0a2,2,0,0,0,.73.56c0,.36-.33.5-.52.73s-.34.33-.5.51c-.31.33-1,.56-.92.92s.57.65.88,1A4.28,4.28,0,0,1,93.85,77.82Z"/><path class="cls-8" d="M84.46,69.9l-.28.16c-.83.64-.89.68-1.47-.18-.81-1.21-1.52-2.49-2.29-3.73-.11-.19,0-.27.12-.36l.9-.63A17.48,17.48,0,0,1,83.24,68C83.59,68.69,84.11,69.25,84.46,69.9Z"/><path class="cls-8" d="M78.09,61a1.63,1.63,0,0,0-.67.55c-.27.28-.45.23-.7,0a25.07,25.07,0,0,0-3.28-3c-.26-.19-.24-.34-.06-.57s.39-.52.58-.79a21,21,0,0,1,3.46,3C77.67,60.41,78,60.62,78.09,61Z"/><path class="cls-8" d="M59.54,61c0,.45.37,1,.05,1.31s-.81.24-1.23.35a15.8,15.8,0,0,0-3.08,1.14c-.35.18-.49.08-.61-.23s-.27-.56-.4-.84A14.67,14.67,0,0,1,59.54,61Z"/><path class="cls-8" d="M52.75,86.5l.13-.17c.21-.29.27-.81.59-.86s.65.26,1,.42a23.36,23.36,0,0,0,3.3,1.31c.34.11.49.24.34.61a5,5,0,0,0-.2.85,17,17,0,0,1-4-1.5A2.64,2.64,0,0,1,52.75,86.5Z"/><path class="cls-8" d="M74.18,90c-.05-1.39,0-1.46,1.38-1.26a17.88,17.88,0,0,0,3.43.15c.42,0,.66.06.61.55a4.25,4.25,0,0,0,.06.87A26.46,26.46,0,0,1,74.18,90Z"/><path class="cls-8" d="M63.21,89.67a2.4,2.4,0,0,0,.07-.65c-.07-.6.24-.72.74-.64a27.94,27.94,0,0,0,3.88.1c.71,0,.74,0,.78.77v.54A21.77,21.77,0,0,1,63.21,89.67Z"/><path class="cls-8" d="M49.89,65.85a2.49,2.49,0,0,0,.2.32c.58.71.58.72-.06,1.36a17.53,17.53,0,0,0-2.35,2.8c-.25.38-.45.44-.81.15a1.59,1.59,0,0,0-.66-.37,4.15,4.15,0,0,1,.85-1.37,19.11,19.11,0,0,1,2.42-2.66C49.6,66,49.69,65.82,49.89,65.85Z"/><path class="cls-8" d="M96.6,69.14a1.72,1.72,0,0,0-.8-.29c-.35-.1-.47-.24-.34-.62a10.69,10.69,0,0,0,.34-1.38c0-.22.18-.5-.12-.69.15-.34.49-.48.77-.66.59-.38.89-.26.87.42A7.49,7.49,0,0,1,96.6,69.14Z"/><path class="cls-8" d="M94.2,83.75c.4-.9,1.31-1,2.08-1.24a4.58,4.58,0,0,1,.57,2.29c0,.35-.21.48-.51.34A6.86,6.86,0,0,1,94.2,83.75Z"/><path class="cls-8" d="M72.58,83.86a15.19,15.19,0,0,1-6.39-1.53A5.37,5.37,0,0,1,63.3,79.2a7.15,7.15,0,0,1-.2-2.48c0-.3.29-.21.47-.22a13.43,13.43,0,0,1,5.78,1.31,20.77,20.77,0,0,1,6.86,4.91c.34.36.23.47-.16.6A11.05,11.05,0,0,1,72.58,83.86Z"/><path class="cls-8" d="M53.51,72.53a1.8,1.8,0,0,1,1.86-1.75,1.76,1.76,0,1,1-.21,3.52A1.6,1.6,0,0,1,53.51,72.53Z"/></g></g></g></svg>