<svg xmlns="http://www.w3.org/2000/svg" viewBox="0 0 140.96 134.48"><defs><style>.cls-1{fill:none;}.cls-2,.cls-4{fill:#6c6b86;}.cls-2{stroke:#6c6b86;}.cls-2,.cls-5,.cls-6{stroke-miterlimit:10;stroke-width:0.71px;}.cls-3,.cls-6{fill:#595850;}.cls-5{fill:#cfedff;stroke:#fff;}.cls-6{stroke:#595850;}</style></defs><g id="圖層_2" data-name="圖層 2"><g id="魚魟"><path class="cls-1" d="M110.42,8.3c-.61-.42-1.23-.83-1.85-1.23C109.19,7.47,109.81,7.88,110.42,8.3Z"/><path class="cls-1" d="M31.33,7.3c-.63.41-1.26.82-1.88,1.24C30.07,8.12,30.7,7.71,31.33,7.3Z"/><path class="cls-1" d="M26.85,10.42c-.4.3-.8.59-1.19.91C26.05,11,26.45,10.72,26.85,10.42Z"/><path class="cls-1" d="M29.19,8.72,27.56,9.87Z"/><path class="cls-1" d="M112.26,9.59c-.55-.4-1.1-.78-1.65-1.16C111.16,8.81,111.71,9.19,112.26,9.59Z"/><path class="cls-1" d="M114.11,11c-.4-.32-.81-.62-1.21-.93C113.3,10.38,113.71,10.68,114.11,11Z"/><path class="cls-2" d="M25.66,11.33c.39-.32.79-.61,1.19-.91l.71-.55,1.63-1.15.26-.18c.62-.42,1.25-.83,1.88-1.24h0c-6.59-1-7.41-2.57-7.41-2.57a.76.76,0,0,1,0-.19c-.15,0-.24,0-.28,0-2.68,2.38-2.23,6.74-.86,9.21l1-.85C24.35,12.38,25,11.84,25.66,11.33Z"/><path class="cls-2" d="M110.37,6.83l-1.8.24h0c.62.4,1.24.81,1.85,1.23l.19.13c.55.38,1.1.76,1.65,1.16l.64.48c.4.31.81.61,1.21.93.64.5,1.27,1,1.89,1.55s1,.87,1.48,1.31c3.14-2.65,1.68-7.85-.45-9.11C116.56,6.4,110.37,6.83,110.37,6.83Z"/><path class="cls-3" d="M34.88,6.81c5.28.55,57.54,1.77,65.46.76,2.26-.29,4.79-.74,7.13-1.2,4.24-.84,7.84-1.72,8.07-1.81a1.69,1.69,0,0,1,1.49.19v0c.42-1.67-6.25-2.23-13.76-2.78S79.93,0,70.48,0,49.5.42,42.13,1.11s-13.06,1.39-15.84,2c-2.09.41-2.37,1.14-2.39,1.48,1.05.11,4.76,1.29,8.72,2C33.37,6.62,34.12,6.73,34.88,6.81Z"/><path class="cls-4" d="M23.92,4.73s.82,1.54,7.41,2.57c.43-.27.85-.55,1.29-.81-4-.66-7.67-1.84-8.72-1.95A.76.76,0,0,0,23.92,4.73Z"/><path class="cls-3" d="M23.92,4.73s.82,1.54,7.41,2.57c.43-.27.85-.55,1.29-.81-4-.66-7.67-1.84-8.72-1.95A.76.76,0,0,0,23.92,4.73Z"/><path class="cls-4" d="M115.54,4.56c-.23.09-3.83,1-8.07,1.81l1.1.7,1.8-.24s6.19-.43,6.66-2.08A1.69,1.69,0,0,0,115.54,4.56Z"/><path class="cls-3" d="M115.54,4.56c-.23.09-3.83,1-8.07,1.81l1.1.7,1.8-.24s6.19-.43,6.66-2.08A1.69,1.69,0,0,0,115.54,4.56Z"/><path class="cls-5" d="M117.48,13.86a6,6,0,0,1-1.94,1.08,56.64,56.64,0,0,1-10.14,1.88,280.44,280.44,0,0,1-36.14,2.31c-20.4-.16-32.57-1.84-40.72-2.31a19,19,0,0,1-4.92-1.88,5.22,5.22,0,0,1-.86-1.17C-.16,34.35.29,64,.37,66.66c.72,22.8,12.9,44.6,31.5,55.6a67.88,67.88,0,0,0,6.17,3.2c3,.4,6.77.87,10.44,1.22,7.78.74,12.41,1.67,22,1.67s16.36-.93,24.51-1.48c2.3-.16,4.15-.35,5.67-.53A67.77,67.77,0,0,0,119,115.21c9.1-7.82,15.84-21.72,19.27-33.35C145.31,57.89,136,30.67,117.48,13.86Z"/><path class="cls-2" d="M28.54,16.82c8.15.47,20.32,2.15,40.72,2.31a280.44,280.44,0,0,0,36.14-2.31,56.64,56.64,0,0,0,10.14-1.88,6,6,0,0,0,1.94-1.08c-.48-.44-1-.88-1.48-1.31s-1.25-1.05-1.89-1.55c-.4-.32-.81-.62-1.21-.93l-.64-.48c-.55-.4-1.1-.78-1.65-1.16l-.19-.13c-.61-.42-1.23-.83-1.85-1.23h0C106.18,7.39,101.8,8,98,8.34c-5.56.55-16,.42-26.13.55s-18.76-.13-32.66-.83a74.12,74.12,0,0,1-7.88-.76h0c-.63.41-1.26.82-1.88,1.24l-.26.18L27.56,9.87l-.71.55c-.4.3-.8.6-1.19.91-.66.52-1.31,1.05-1.94,1.59l-1,.85a5.22,5.22,0,0,0,.86,1.17A19,19,0,0,0,28.54,16.82Z"/><path class="cls-4" d="M27.56,9.87l-.71.55Z"/><path class="cls-4" d="M27.56,9.87l-.71.55Z"/><polygon class="cls-4" points="31.33 7.3 31.33 7.3 31.33 7.3 31.33 7.3"/><polygon class="cls-4" points="31.33 7.3 31.33 7.3 31.33 7.3 31.33 7.3"/><path class="cls-4" d="M25.66,11.33c-.66.51-1.31,1.05-1.94,1.59C24.35,12.38,25,11.85,25.66,11.33Z"/><path class="cls-4" d="M25.66,11.33c-.66.51-1.31,1.05-1.94,1.59C24.35,12.38,25,11.85,25.66,11.33Z"/><path class="cls-4" d="M29.45,8.54l-.26.18Z"/><path class="cls-4" d="M29.45,8.54l-.26.18Z"/><path class="cls-4" d="M116,12.55c-.62-.53-1.25-1.05-1.89-1.55C114.75,11.5,115.38,12,116,12.55Z"/><path class="cls-4" d="M116,12.55c-.62-.53-1.25-1.05-1.89-1.55C114.75,11.5,115.38,12,116,12.55Z"/><path class="cls-4" d="M112.9,10.07l-.64-.48Z"/><path class="cls-4" d="M112.9,10.07l-.64-.48Z"/><path class="cls-4" d="M110.61,8.43l-.19-.13Z"/><path class="cls-4" d="M110.61,8.43l-.19-.13Z"/><polygon class="cls-4" points="108.57 7.07 108.57 7.07 108.57 7.07 108.57 7.07"/><polygon class="cls-4" points="108.57 7.07 108.57 7.07 108.57 7.07 108.57 7.07"/><path class="cls-3" d="M100.34,7.57c-7.92,1-60.18-.21-65.46-.76-.76-.08-1.51-.19-2.26-.32-.44.26-.86.54-1.29.81a74.12,74.12,0,0,0,7.88.76c13.9.7,22.52,1,32.66.83s20.57,0,26.13-.55c3.8-.38,8.18-1,10.57-1.27l-1.1-.7C105.13,6.83,102.6,7.28,100.34,7.57Z"/><path class="cls-3" d="M100.34,7.57c-7.92,1-60.18-.21-65.46-.76-.76-.08-1.51-.19-2.26-.32-.44.26-.86.54-1.29.81a74.12,74.12,0,0,0,7.88.76c13.9.7,22.52,1,32.66.83s20.57,0,26.13-.55c3.8-.38,8.18-1,10.57-1.27l-1.1-.7C105.13,6.83,102.6,7.28,100.34,7.57Z"/><path class="cls-4" d="M31.33,7.3h0c.43-.27.85-.55,1.29-.81C32.18,6.75,31.76,7,31.33,7.3Z"/><path class="cls-3" d="M31.33,7.3h0c.43-.27.85-.55,1.29-.81C32.18,6.75,31.76,7,31.33,7.3Z"/><path class="cls-4" d="M31.33,7.3h0c.43-.27.85-.55,1.29-.81C32.18,6.75,31.76,7,31.33,7.3Z"/><path class="cls-4" d="M107.47,6.37l1.1.7h0Z"/><path class="cls-3" d="M40.34,123c-3.35-.45-5.69-.81-5.69-.81s-2,2.59-2,4.81a6.45,6.45,0,0,0,2,4.08s.19.74,12.23,1.85,20,1.3,27.43,1.49,13.34-.38,24.46-1.3,14.83-2.78,14.08-6.12-.74-4.07-2.77-4.07c-1.47,0-3.23.47-7.12,1C83.12,132.11,59.37,131.74,40.34,123Z"/><path class="cls-6" d="M72.25,126.17c-9.59,0-14.22-.93-22-1.67-3.67-.35-7.45-.82-10.44-1.23,13.82,9.3,34.46,10,62.63.88-1.53.19-3.38.38-5.68.53C88.61,125.24,81.84,126.17,72.25,126.17Z"/></g></g></svg>